<?xml version="1.0" encoding="UTF-8"?>
<svg id="Capa_1" data-name="Capa 1" xmlns="http://www.w3.org/2000/svg" viewBox="0 0 100 100">
  <defs>
    <style>
      .cls-1 {
        fill: #000;
      }

      .cls-1, .cls-2 {
        stroke-width: 0px;
      }

      .cls-2 {
        fill: #e5b13a;
      }
    </style>
  </defs>
  <path class="cls-1" d="M7,25.81h86v48.37H7V25.81Z"/>
  <path class="cls-2" d="M34.77,49.28v-11.56h-7.57c-.07,0-.13.06-.13.13,0,0,0,.01,0,.02l2.91,3.9.02.03c.39.52.74,1.08.74,2.35,0,1.45-.54,2.77-1.53,3.72-.94.91-2.19,1.4-3.52,1.4H9.51v-6.36h13.36c.07,0,.07-.09.07-.13h0c-.37-.44-2.4-2.86-2.82-3.36l-.02-.02-.02-.02c-.39-.52-.73-1.09-.73-2.38,0-1.45.53-2.78,1.5-3.74.94-.94,2.19-1.45,3.52-1.45h24.1v5.91h-7.35v11.56h-6.36ZM59.58,49.28l-.72-2.24h-6l-.72,2.24h-6.28l5.65-17.47h8.6l5.76,17.47h-6.29ZM57.05,41.76l-1.18-3.5-1.18,3.5h2.36ZM80.01,49.28c-.74,0-1.42-.27-2-.79-.99-.89-2.71-2.51-4-3.72v4.51h-6.63v-17.47h11.38c3.21,0,5.82,2.61,5.82,5.82,0,2.1-1.14,4-2.9,5.02.15.16.28.26.58.26h8.24v6.36h-10.48ZM77.46,38.8c.47,0,.85-.38.85-.85s-.38-.85-.85-.85h-3.45v1.7h3.45ZM24.88,67.74l-2.5-7.33-2.5,7.33h-4.38l-5.7-17.47h6.42l1.47,4.59,1.59-4.59h6.2l1.59,4.59,1.47-4.59h6.42l-5.7,17.47h-4.38ZM45.97,67.74l-.72-2.24h-6l-.72,2.24h-6.28l5.65-17.47h8.6l5.76,17.47h-6.29ZM43.43,60.21l-1.18-3.5-1.18,3.5h2.36,0ZM66.57,67.74c-.74,0-1.42-.27-2-.79-.99-.89-2.71-2.51-4-3.72v4.51h-6.63v-17.47h11.38c3.21,0,5.82,2.61,5.82,5.82,0,2.1-1.14,4-2.9,5.02.15.16.28.26.58.26h9.51c.07,0,.07-.09.07-.13,0,0,0,0,0,0-.37-.43-2.4-2.85-2.82-3.35l-.02-.02-.02-.02c-.39-.52-.73-1.09-.73-2.38,0-1.45.53-2.78,1.5-3.74.94-.94,2.19-1.45,3.52-1.45h10.66v5.91h-7.84c-.07,0-.13.06-.13.13,0,0,0,.01,0,.02l2.91,3.9.02.03c.39.52.74,1.08.74,2.35,0,1.45-.54,2.77-1.53,3.72-.94.91-2.19,1.4-3.52,1.4h-14.57ZM64.02,57.26c.47,0,.85-.38.85-.85s-.38-.85-.85-.85h-3.45v1.7h3.45Z"/>
  <path class="cls-1" d="M47.49,32.8h-23.11c-2.15,0-4.03,1.7-4.03,4.21,0,1.07.27,1.43.54,1.79.45.54,2.87,3.4,2.87,3.4.08.1.18.27.18.58,0,.62-.44,1.12-1.06,1.12h-12.38v4.39h15.2c2.15,0,4.06-1.63,4.06-4.14,0-1.07-.3-1.43-.57-1.79l-2.93-3.93c-.08-.1-.18-.27-.18-.58,0-.62.5-1.12,1.12-1.12h8.55v11.56h4.39v-11.56h7.35v-3.94ZM59.41,32.8h-7.17l-5.02,15.5h4.21l.72-2.24h7.44l.72,2.24h4.21l-5.11-15.5ZM53.31,42.74l2.55-7.57,2.55,7.57h-5.11ZM82.25,43.91c-.72,0-1.09-.35-1.34-.63l-.9-.99c2.06-.56,3.58-2.42,3.58-4.66,0-2.67-2.17-4.84-4.84-4.84h-10.39v15.5h4.66v-5.82s3.94,3.76,5.64,5.29c.19.17.63.54,1.34.54h9.5v-4.39h-7.26ZM73.02,36.12h4.43c1.01,0,1.84.82,1.84,1.84s-.82,1.84-1.84,1.84h-4.43v-3.67ZM29.26,51.25l-2.15,6.72-2.33-6.72h-4.79l-2.33,6.72-2.15-6.72h-4.34l5.06,15.5h2.96l3.2-9.41,3.2,9.41h2.96l5.06-15.5h-4.34ZM45.79,51.25h-7.17l-5.02,15.5h4.21l.72-2.24h7.44l.72,2.24h4.21l-5.11-15.5ZM39.7,61.2l2.55-7.57,2.55,7.57h-5.11ZM82.65,55.2h6.85v-3.94h-9.67c-2.15,0-4.03,1.7-4.03,4.21,0,1.07.27,1.43.54,1.79.45.54,2.87,3.4,2.87,3.4.08.1.18.27.18.58,0,.62-.44,1.12-1.06,1.12h-9.51c-.72,0-1.09-.35-1.34-.63l-.9-.99c2.06-.56,3.58-2.42,3.58-4.66,0-2.67-2.17-4.84-4.84-4.84h-10.39v15.5h4.66v-5.82s3.94,3.76,5.64,5.29c.19.17.63.54,1.34.54h14.57c2.15,0,4.06-1.63,4.06-4.14,0-1.07-.3-1.43-.57-1.79l-2.93-3.93c-.08-.1-.18-.27-.18-.58,0-.62.5-1.12,1.12-1.12ZM64.02,58.24h-4.43v-3.67h4.43c1.01,0,1.84.82,1.84,1.84s-.82,1.84-1.84,1.84Z"/>
</svg>