<?xml version="1.0" encoding="UTF-8"?>
<svg id="Capa_1" data-name="Capa 1" xmlns="http://www.w3.org/2000/svg" viewBox="0 0 100 100">
  <defs>
    <style>
      .cls-1 {
        fill: #fff;
      }

      .cls-1, .cls-2 {
        fill-rule: evenodd;
        stroke-width: 0px;
      }

      .cls-2 {
        fill: #cc2131;
      }
    </style>
  </defs>
  <path class="cls-2" d="M17.29,60.91c-6.95,0-11.59-4.92-11.59-10.89s4.65-10.95,11.58-10.93h65.44c6.92-.02,11.58,4.96,11.58,10.93s-4.64,10.89-11.59,10.89H17.29Z"/>
  <path class="cls-1" d="M17.31,41.77c-5.5,0-8.88,3.69-8.88,8.23s3.35,8.25,8.88,8.23h65.38c5.52.02,8.88-3.68,8.88-8.23s-3.38-8.22-8.88-8.23H17.31Z"/>
  <path class="cls-2" d="M14.49,44.84h3.2l4.43,7.16v-7.16s3.17,0,3.17,0v10.28h-3.17l-4.45-7.16v7.16h-3.18v-10.28ZM42.56,45.9h3.09v1.38h1.67v1.01h-1.67v6.82s-3.09,0-3.09,0v-6.82s-1.68,0-1.68,0v-1.01h1.68v-1.38ZM27.06,48.29h3.09v6.83h-3.09v-6.83ZM27.06,44.84h3.1v2.1h-3.1v-2.1ZM82.45,51.65s0,1.03,0,1.45c0,1.09-.64,1.54-1.26,1.54s-1.27-.45-1.27-1.54c0-.42,0-1.47,0-1.47,0,0,0-1.01,0-1.43,0-1.08.64-1.53,1.26-1.53s1.26.45,1.26,1.53c0,.42,0,1.18,0,1.46h0s0,0,0,0ZM81.21,47.82c-2.49,0-4.51,1.72-4.51,3.84s2.02,3.84,4.51,3.84,4.52-1.72,4.52-3.84-2.02-3.84-4.52-3.84h0ZM72.64,44.84h3.05v10.27h-3.05v-.39c-1.18.74-2.52.74-3.56.26-.28-.13-2.11-1.01-2.11-3.39,0-1.81,1.7-3.77,3.93-3.58.73.07,1.25.33,1.75.61v-3.78ZM72.66,51.67v-1.22c0-1.06-.73-1.33-1.21-1.33s-1.21.27-1.21,1.33c0,.35,0,1.22,0,1.22,0,0,0,.85,0,1.21,0,1.06.72,1.33,1.21,1.33s1.21-.28,1.21-1.33v-1.21ZM37.39,47.97c1.15-.03,3.5.72,3.48,3.43,0,.48,0,3.72,0,3.72h-3.07v-4.49c0-.6-.57-1.26-1.41-1.26s-1.47.66-1.47,1.26v4.49s-3.06,0-3.06,0v-6.83s3.07,0,3.07,0c0,0,0,.55,0,.72.67-.64,1.54-1,2.46-1.03h0ZM62.5,47.97c1.15-.03,3.5.72,3.48,3.43,0,.48,0,3.72,0,3.72h-3.07v-4.49c0-.6-.57-1.26-1.41-1.26s-1.47.66-1.47,1.26v4.49s-3.06,0-3.06,0v-6.83s3.07,0,3.07,0c0,0,0,.55,0,.72.67-.64,1.54-1,2.46-1.03h0ZM50.21,50.67c0-.6,0-1,.2-1.34.24-.42.69-.62,1.09-.62h0c.4,0,.85.2,1.09.62.2.34.21.74.2,1.34h-2.58ZM52.77,52.73s0,.03,0,.42c0,1.25-.82,1.53-1.28,1.53s-1.29-.28-1.29-1.53c0-.38,0-1.41,0-1.41,0,0,5.82,0,5.82,0,0-2.12-2.04-3.88-4.56-3.88s-4.55,1.72-4.55,3.84,2.04,3.84,4.55,3.84c2.08,0,3.84-1.19,4.38-2.81h-3.08s0,0,0,0ZM85.94,47.29h-.36v-2.34h.89c.55,0,.83.2.83.66,0,.42-.26.6-.61.64l.66,1.03h-.4l-.62-1.01h-.41v1.01h0ZM86.36,45.97c.3,0,.57-.02.57-.38,0-.29-.26-.34-.51-.34h-.48v.72h.42Z"/>
  <path class="cls-2" d="M84.31,46.11c0-1.16.95-2.02,2.06-2.02s2.05.86,2.05,2.02-.94,2.03-2.05,2.03-2.06-.86-2.06-2.03ZM86.37,47.81c.92,0,1.64-.72,1.64-1.7s-.72-1.68-1.64-1.68-1.65.73-1.65,1.68.72,1.7,1.65,1.7Z"/>
</svg>