<?xml version="1.0" encoding="UTF-8"?>
<svg id="Capa_1" data-name="Capa 1" xmlns="http://www.w3.org/2000/svg" viewBox="0 0 100 100">
  <defs>
    <style>
      .cls-1 {
        fill: #000;
        fill-rule: evenodd;
        stroke-width: 0px;
      }
    </style>
  </defs>
  <path class="cls-1" d="M69.31,38.84c.65-3.63-1.77-6.49-4.59-8.56-3.94-2.9-8.39-4.63-12.97-5.97v47.92c2.03-1.77,4.07-3.76,6.01-5.8,4.15-4.58,8-9.25,9.6-14.88.65-2.55.3-5.45-1.86-7.18,1.86-1.47,3.55-3.29,3.81-5.54ZM61.4,55.41c-1.43,2.59-3.37,4.97-5.67,7.18l-.04-13.71c1.56-1.12,3.16-2.12,5.1-2.29.78,0,1.47.26,1.99.86,1.73,2.72-.3,5.58-1.38,7.96ZM65.33,37.76c-.39,2.16-2.77,3.42-4.46,4.32-1.69.86-3.42,1.56-5.19,2.21v-14.01c2.73.82,5.19,2.21,7.53,3.85,1.08.91,2.55,2.03,2.12,3.63h0ZM48.21,71.88V24.14l-3.85,1.99v25.6c-.17.73.35,1.86-.48,2.21-.22.04-.39-.04-.48-.22-1.64-6.18-2.34-12.72-2.64-19.42l-.13-5.84-3.68,2.72v1.56c.22,6.18.65,12.24,1.82,18.03l-1.47,1.64c-.56-.78-.91-1.6-1.3-2.42-1.86-4.93-2.55-10.34-2.81-15.92l-3.2,2.38c.3,8.48,1.9,16.48,7.05,22.83.99-1.12,1.99-2.29,2.98-3.37.52,2.29,1.25,4.5,2.12,6.66,1.43,3.33,3.03,6.7,6.05,9.3h0Z"/>
  <path class="cls-1" d="M77.66,30.41l-5.75-1.43-1.04-3.89-5.88-1.38-1.21-4.24-13.88-3.16-13.62,3.16-1.21,4.24-5.88,1.38c-.39,1.34-.74,2.64-1.08,3.94l-5.75,1.38c-.43,12.24,2.94,23.01,9.04,32.61,4.45,6.88,11.16,14.14,18.51,17.73,4.97-2.38,9.39-6.36,13.36-10.81,9.64-11.16,14.92-24.22,14.4-39.53h0ZM60.71,67.43c-3.16,3.55-6.7,7.05-10.68,9.08-3.81-1.9-7.14-5.19-10.16-8.52-7.87-9.21-13.1-19.5-13.97-31.57-.09-.99-.13-1.95-.09-2.98l4.89-1.12,1.12-4.02,6.01-1.43.04-.13,1.08-4.15,10.9-2.55,11.24,2.55,1.08,4.24,6.1,1.47,1.04,4.02,4.93,1.12c-.13,13.15-5.36,24.18-13.54,33.99h0ZM62.52,80.27c.65-.04,1.08-.39,1.08-1.12,0-.82-.52-1.21-1.51-1.21h-1.56v4.15h.69v-1.77h.65l1.08,1.77h.74l-1.17-1.82ZM61.22,79.75v-1.25h.82c.39,0,.86.09.86.61,0,.56-.43.65-.95.65h-.74,0Z"/>
  <path class="cls-1" d="M62,76.6c-1.95,0-3.55,1.6-3.55,3.55s1.6,3.55,3.55,3.55,3.55-1.6,3.55-3.55-1.6-3.55-3.55-3.55ZM62,83.34c-1.76,0-3.2-1.42-3.2-3.19,0,0,0,0,0-.01,0-1.76,1.42-3.2,3.19-3.2,0,0,0,0,.01,0,1.77,0,3.2,1.43,3.2,3.2,0,1.76-1.42,3.2-3.18,3.2,0,0-.01,0-.02,0Z"/>
</svg>