<?xml version="1.0" encoding="UTF-8"?>
<svg id="Capa_1" data-name="Capa 1" xmlns="http://www.w3.org/2000/svg" viewBox="0 0 100 100">
  <defs>
    <style>
      .cls-1 {
        fill: #000;
      }

      .cls-1, .cls-2 {
        stroke-width: 0px;
      }

      .cls-2 {
        fill: #030303;
      }
    </style>
  </defs>
  <path id="path6" class="cls-1" d="M49.79,34.92c.28,2.25.59,4.5.87,6.75.2,1.48.4,2.96.52,4.45-.48-.25-.94-.6-1.48-.71,0,.26.04.51.08.76.36,2.1.69,4.2.94,6.32.03.3.09.6.09.9-.06-.02-.12-.04-.16-.09-.31-.32-.6-.64-.91-.95.59,3.68,1.23,7.36,1.82,11.05.1.59.17,1.13.29,1.69.1-.36.11-.73.17-1.1.21-2.26.33-4.53.51-6.79.19.4.41.79.61,1.19.13.24.24.49.39.72.05,0,.09.02.14.03,0-1.01.01-2.02.01-3.03.02-.58-.02-1.15.03-1.73,0-1.12,0-2.23.02-3.35.38.75.74,1.51,1.12,2.26.06-.08.17-.14.14-.25-.12-1.92-.26-3.84-.35-5.77-.04-.39-.03-.78-.05-1.16.09.03.13.12.18.2.47.75.93,1.51,1.39,2.27.06.1.2.07.3.07.52-.05,1.03-.2,1.52-.37.74-.27,1.47-.62,2.02-1.2.39.08.77.21,1.14.37,0,1.28-.01,2.57,0,3.86.03.72-.06,1.46.15,2.17.16.5.57.86.95,1.21.67.59,1.37,1.13,2.07,1.68.3.25.72.21,1.09.19.44-.03.83-.25,1.22-.43.37-.17.73-.36,1.09-.55.47-.26.88-.65,1.16-1.11.18-.28.22-.62.27-.94.1-.69.15-1.39.15-2.09.02-1.27-.19-2.52-.31-3.77l-.02-.04c0-.25-.05-.49-.09-.74-.05-.33-.08-.67-.23-.97-.13-.29-.33-.54-.56-.76-.61-.57-1.28-1.08-2.02-1.47-.31-.18-.68-.02-.98.09-1.07.45-2.06,1.07-3.03,1.7-.23.14-.42.35-.49.62-.06.22-.17.42-.3.61-.36-.04-.69-.2-1.03-.3.13-1.76.32-3.52.44-5.28.02-.33.1-.69-.04-1.01-.16-.37-.43-.67-.67-.99-.9-1.11-1.8-2.22-2.73-3.3-.2-.03-.39.02-.58.09-.61.22-1.21.45-1.82.65-.09.03-.18.04-.27.05-.09-.53.03-1.06.04-1.59-.87-.01-1.74.04-2.6,0-.61-.04-1.23-.05-1.84-.07h-.35ZM56.37,37.18c.08,0,.16.02.23.07.05.09.07.19.08.29.27,1.48.36,2.99.44,4.49.02.35,0,.7.04,1.04.02.72.02,1.44.01,2.16-.16.03-.33.01-.49-.01-.47-.05-.95.02-1.41.11-.24.03-.47.07-.71.1-.06-2.05-.02-4.11-.05-6.16,0-.47,0-.94,0-1.41,0-.12.04-.27.18-.3.52-.16,1.06-.24,1.59-.36.03,0,.06-.01.08-.01h0ZM65.81,44.53c.07.25,0,.51-.07.74-.17.38-.49.68-.82.92-.3.23-.7.26-.98.52-.04-.06-.05-.12-.05-.19,0-.23-.02-.46.04-.69.6-.47,1.25-.88,1.88-1.31h0ZM55.22,46.02c.17,0,.35,0,.52.04.47.04.93.12,1.38.24l.05.11s0,.09,0,.13c-.17.28-.38.54-.59.8-.2.07-.3-.13-.42-.24-.32-.35-.64-.71-.95-1.08h0ZM66,46.95c.14,1.07.29,2.15.37,3.23.03.38,0,.77.05,1.15.02.32-.03.63-.02.94,0,.61-.06,1.22-.14,1.83-.05.32-.08.64-.21.94-.29.17-.59.34-.91.46-.08.04-.17.04-.25.03-.23-.23-.48-.45-.64-.73-.11-1.16-.2-2.32-.24-3.48-.05-.36-.03-.73-.04-1.09-.06-.91-.04-1.83-.05-2.74.13-.06.27-.12.41-.17.25-.12.51-.21.76-.34.3-.03.61-.03.91-.03Z"/>
  <path id="path12" class="cls-2" d="M37.9,37.58c.13-.03.3,0,.36.14.05.68.03,1.38.08,2.06,0,.04.02.11.03.14.06,0,.12,0,.17-.05.35-.24.7-.49,1.06-.73.17-.1.34-.22.54-.27.18-.03.32.13.41.27.27.4.47.83.67,1.26.23.53.5,1.05.63,1.62.07.22-.16.35-.3.46-.73.51-1.47.99-2.25,1.42-.18.11-.27-.16-.39-.25.15-.18.31-.35.47-.52.06-.06.02-.15,0-.22-.19-.6-.35-1.21-.54-1.81,0-.03-.02-.1-.02-.13-.17-.04-.34-.02-.5.06-.01.03-.04.08-.06.11-.04.96,0,1.92,0,2.88,0,1.19,0,2.37,0,3.56.04.33.02.66.02.99,0,.86,0,1.71.02,2.57.15.38.52.6.75.91-.21.01-.43-.01-.64-.04-.31,0-.63-.03-.94-.03-.5-.05-1.01-.01-1.51.05-.22.03-.45,0-.68.05-.29,0-.6.06-.87-.07-.14-.06-.29-.13-.43-.18,0-.02.02-.05.03-.07.26-.15.49-.36.71-.57.19-.2.39-.41.44-.69.16-.77.18-1.56.23-2.34,0-2.28.04-4.57.06-6.85,0-.09.02-.18-.03-.26.07-.19.02-.42.03-.63-.13.04-.26.08-.39.12-.06,0-.12,0-.18,0-.03-.04-.06-.09-.08-.13.09-.11.21-.2.31-.3.77-.76,1.54-1.52,2.31-2.28.11-.13.26-.21.42-.25h0Z"/>
  <path id="path14" class="cls-2" d="M14.94,38.09c.44.04.89.12,1.34.12.73.04,1.47.04,2.2-.01.58-.02,1.16-.12,1.75-.11-.03.19-.21.27-.3.43-.26.43-.46.9-.58,1.39-.05.36-.07.72-.07,1.09-.02,1.93,0,3.86.02,5.79-.02.09.08.13.15.09,1.11-.28,2.27-.36,3.41-.33.41.02.84-.02,1.24.11,0,.04-.02.09-.02.13-.12.05-.25.09-.35.18-.31.26-.6.55-.9.83-.07.08-.2.16-.16.29.11.64.14,1.29.27,1.93.24.89.53,1.76.76,2.65.09,0,.18-.03.25-.11.14-.14.3-.25.45-.38.05-.58.07-1.16.09-1.73.04-.4.03-.8.04-1.2.02-2.1-.03-4.21-.28-6.29-.12.03-.23.05-.34.11-.55.25-1.09.53-1.6.85-.14.08-.27.19-.32.35-.12.36-.08.75-.06,1.13-.08.03-.17.05-.25.08-.44-.71-.89-1.41-1.2-2.19-.09-.27-.23-.54-.17-.82.21-.1.39-.27.58-.4.78-.55,1.6-1.05,2.49-1.42.12-.04.29-.12.39,0,.82.82,1.61,1.67,2.4,2.52.42.47.89.96,1.01,1.61.12.75.14,1.52.14,2.28,0,.87.02,1.74-.04,2.61,0,.67-.02,1.34-.02,2,.3.14.65.15.96.07-.01.1-.09.16-.15.22-.44.4-.88.79-1.33,1.18-.31.26-.46.65-.76.9-.32.29-.81.31-1.21.18-.41-.21-.4-.72-.44-1.11-.53.38-1.05.78-1.56,1.17-.24.19-.57.08-.84.03-.2-.05-.45-.13-.51-.36-.23-.69-.45-1.39-.69-2.08-.25-.78-.54-1.55-.71-2.35-.07-.26.06-.51.18-.73.35-.56.84-.99,1.31-1.44-.73.14-1.49.26-2.15.64,0,1.8.02,3.6.01,5.39.04.77,0,1.54.02,2.3,0,.9,0,1.81.03,2.71.05.71.17,1.47.66,2.02.18.22.46.29.66.49-.03.08-.06.16-.1.24-.09,0-.18,0-.26,0-.97-.16-1.95-.27-2.93-.31-.93,0-1.85-.04-2.78.07-.05-.15-.2-.27-.19-.43.51-.29,1.01-.69,1.21-1.26.26-.73.29-1.5.35-2.26.07-1.38.09-2.76.05-4.13-.04-.92-.03-1.85-.14-2.77-.96.75-2.15,1.13-3.33,1.39,0,1.91.04,3.83.05,5.74.02.4-.02.81.03,1.21.12.44.55.66.91.88.08.05.22.17.14.27-.15.02-.29-.05-.43-.08-.46-.1-.93-.13-1.39-.17-1.55-.1-3.1-.13-4.66-.14-.06-.02-.21-.07-.09-.12,0-.04.01-.13.02-.18.55-.22,1.11-.54,1.42-1.07.19-.32.19-.69.22-1.05.04-.7.03-1.4.06-2.1,0-.97-.02-1.93-.03-2.9-.73-.34-1.47-.68-2.19-1.06-.5-.25-.85-.7-1.16-1.15-.25-.4-.48-.82-.66-1.26v-.11c.8-.36,1.68-.49,2.54-.61,0,.09.03.2-.07.25-.54.32-1.1.59-1.63.94.18.21.39.37.61.52.61.42,1.26.76,1.92,1.08.18.08.36.19.56.19.03-.34.01-.68.02-1.02-.02-.7,0-1.39-.06-2.09-.02-.52,0-1.05-.05-1.57-.04-1.74-.12-3.49-.19-5.23-.11-.55-.59-.92-1.09-1.09,0-.1.07-.21.18-.23.18-.02.35,0,.53.01.24.04.49.01.73.02.36,0,.73.02,1.1-.02.56-.01,1.11-.01,1.67-.03.48-.04.96-.04,1.43-.05-.02.1-.03.21-.05.31-.3.15-.48.45-.56.77-.06.33-.05.66-.05.99,0,.87,0,1.74.03,2.61.02.73,0,1.47.06,2.2,0,.56.01,1.12.03,1.68.04.71.04,1.43.1,2.14.34-.05.65-.22.96-.37.83-.46,1.64-.97,2.38-1.57,0-2.96-.07-5.93-.31-8.88-.01-.31-.26-.53-.52-.65-.15-.06-.19-.21-.17-.36h0Z"/>
  <path id="path16" class="cls-2" d="M73.14,38.03c.16-.03.2.14.19.26,0,.72.04,1.45.04,2.17.02.43-.02.86.05,1.28.51,0,1.01.02,1.52.02.01.09.02.18.03.28.04.15.02.31.06.46.02.16.03.33.04.49-.49.01-.97.02-1.46.02-.07,0-.13.01-.19.04-.09,1.47-.02,2.94-.05,4.42-.03,1.27-.09,2.55-.12,3.82-.04.19-.02.38-.03.57-.06,1.44-.13,2.89-.18,4.34-.02.37-.1.79.14,1.11.39.4.84.73,1.31,1.03-.1.11-.18.23-.3.31-.09,0-.17-.06-.26-.09-.96-.47-1.92-.93-2.84-1.47-.23-.14-.46-.3-.61-.53-.15-.21-.19-.48-.19-.73.02-1.36.04-2.72.09-4.08.04-1.34.19-2.68.22-4.03.03-1.39.01-2.79-.13-4.18-.01-.2-.04-.4-.08-.6-.74,0-1.48-.01-2.23-.01,0-.13-.01-.26,0-.39.9-.5,1.73-1.13,2.5-1.8.76-.67,1.45-1.43,2.05-2.24.13-.17.25-.35.42-.48h0Z"/>
  <path id="path18" class="cls-2" d="M30.16,38.99c.12-.07.23-.18.38-.17.21.04.4.14.61.21.11.51.11,1.05.19,1.57,0,.06.01.12.02.18.02.01.06.04.07.06.28-.22.59-.41.89-.6.28-.17.6-.33.94-.27.21.05.33.26.43.43.23.46.43.94.62,1.42.21.52.45,1.05.55,1.6-.01.18-.1.34-.25.43-.68.44-1.38.86-2.08,1.28-.08.04-.15.1-.25.1-.05-.09-.12-.17-.19-.24.17-.17.33-.35.48-.53-.01,0-.03-.02-.04-.03-.04-.27-.13-.53-.2-.79-.16-.58-.34-1.16-.5-1.74-.03-.16-.23-.35-.38-.2-.04.17-.02.35-.01.52.04,1.19.09,2.38.11,3.56.06.41,0,.83.07,1.25.05.77.15,1.54.19,2.31.11.94.1,1.89.25,2.83.1.26.37.39.6.51.02.03.04.08.06.1,0,.03-.03.09-.04.12-1.46.04-2.91.03-4.37.03-.15,0-.31,0-.46-.02.08-.2.22-.38.41-.49.19-.11.38-.22.53-.38.05-.05.08-.13.07-.2,0-1.48,0-2.96,0-4.44.02-.21-.04-.42-.03-.63,0-1.12-.02-2.23-.03-3.35-.06-.65,0-1.31-.09-1.96-.53,0-1.07-.03-1.59.04-.09-.03-.23-.08-.24-.19,1.1-.79,2.19-1.58,3.31-2.34h0Z"/>
  <path id="path20" class="cls-2" d="M77.76,39.48c.07-.14.15-.29.3-.36.03.02.1.06.14.08.05.44.04.88.07,1.33.04.17.02.35.03.52.04.86.09,1.71.12,2.57.25,0,.5,0,.74-.02.17.03.35-.02.52-.01.27,0,.55,0,.82,0-.02.34,0,.7-.06,1.04-.66.03-1.32.06-1.98.12,0,.78,0,1.55,0,2.33.03.12.02.24.02.36,0,1.29.02,2.58.03,3.87.05.59.02,1.19.04,1.78.02,1.08.05,2.16.07,3.24.04.58.02,1.17.08,1.76.56.28,1.1.59,1.65.87.15.06.3.22.46.17.37-.25.71-.56,1.05-.85.09-.05.03-.16.01-.23-.57-.17-1.16-.25-1.73-.38-.2-.05-.47-.04-.58-.25.37-.1.77-.04,1.15-.03.89.05,1.78.1,2.66.16.09.02.24.02.24.15.02.17-.15.25-.25.35-.41.38-.78.8-1.17,1.2-.23.24-.39.55-.67.73-.1.08-.24.07-.36.04-.94-.29-1.88-.61-2.8-.97-.84-.34-1.71-.68-2.44-1.22-.1-.09-.23-.18-.24-.33-.08-1.39-.06-2.79-.06-4.19,0-.54.02-1.08.03-1.62,0-2.32-.05-4.65-.1-6.97-.37.02-.75.02-1.12-.01-.16,0-.24-.21-.18-.34.05-.08.11-.15.18-.22.73-.74,1.41-1.52,2-2.38.5-.71.92-1.47,1.31-2.25h0Z"/>
  <path id="path22" class="cls-2" d="M90.72,41.56c.15-.11.3.03.33.18.09.46.08.93.16,1.39.54-.33,1.09-.65,1.63-.98.12-.07.21-.2.36-.21.1-.02.24-.01.29.09.24.34.45.71.67,1.06.34.59.68,1.18.93,1.82.09.21.1.44.06.66-.16.32-.47.51-.73.75-.74.6-1.48,1.18-2.23,1.76-.07-.11-.17-.19-.26-.28.2-.31.44-.6.65-.9.02-.07,0-.14-.03-.21-.18-.57-.35-1.15-.54-1.72-.09-.29-.18-.58-.27-.87-.19.13-.39.27-.59.39.02,1.57.1,3.14.13,4.71.05.54.02,1.08.05,1.62.05.46,0,.94.06,1.4.03,1.19.09,2.38.15,3.56.05.41.36.73.7.93.43.26.91.41,1.4.52.08.02.17.04.26.06.2.03.4.07.61.09,0,.12,0,.23-.01.35-.44.03-.88,0-1.33,0-.19-.01-.38,0-.57-.03-.6,0-1.2-.07-1.78-.21-.58-.13-1.16-.29-1.73-.46-.72-.21-1.47-.37-2.22-.28-.05-.12-.1-.23-.13-.35.63-.06,1.06-.59,1.39-1.08.26-.52.26-1.13.27-1.7.02-1.64-.02-3.28-.03-4.92-.05-.43-.02-.87-.03-1.3,0-.9-.06-1.81-.05-2.71-.26-.01-.52.04-.78.03,0-.06,0-.13-.01-.19.11-.17.21-.36.37-.49.96-.82,1.9-1.66,2.85-2.49h0Z"/>
  <path id="path24" class="cls-1" d="M83.82,42.83c-.14,0-.28.02-.41.06-1,.78-1.97,1.6-2.97,2.37-.11.5-.12,1.02-.19,1.53,0,.34-.14.66-.13.99.06,1.38.05,2.75.06,4.13,0,.34-.11.66-.13,1,.2.2.38.42.57.63.7.72,1.39,1.44,2.22,2.01.13.1.3.12.45.15.4.04.8.08,1.2.02.19.01.34-.14.45-.28.36-.53.77-1.03,1.17-1.54.21-.29.47-.56.62-.88-.34-.5-.6-1.06-1.02-1.5-.05,0-.14.01-.19.02-.04.33-.11.65-.18.97-.2.83-.42,1.67-.8,2.45-.04.08-.09.23-.2.16-.58-.33-1-.92-1.15-1.56-.09-.54-.06-1.08-.11-1.63-.01-.68-.03-1.36-.03-2.04,0-.09,0-.18-.04-.26.05-.08.03-.17.01-.26.02-.37-.09-.77.1-1.11.55,0,1.09.16,1.62.28.32.08.64.16.96.24.07.02.13.04.21.05.23.06.47.12.7.18.08.02.2.04.26-.04.46-.43.75-1.02,1.04-1.57-.1-.35-.25-.68-.37-1.02-.18-.47-.36-.93-.53-1.4-.11-.27-.19-.55-.31-.81-.35-.22-.74-.41-1.1-.61-.14-.07-.28-.14-.41-.21-.36-.18-.72-.38-1.11-.49-.08,0-.17,0-.25,0h0ZM83.73,43.74c.1,0,.18.05.2.17.2.52.41,1.04.62,1.56.27.66.51,1.33.79,1.98,0,.04,0,.09,0,.13-.32.02-.64-.04-.95-.08-.45-.03-.9-.09-1.35-.13,0-.53.06-1.06.08-1.6.06-.62.02-1.28.28-1.87.05-.11.2-.18.33-.18h0Z"/>
  <path id="path28" class="cls-2" d="M44.78,43.89c.44.09.9.03,1.35.08.4,0,.8.05,1.2.1.22,0,.45.02.67-.03,0,.04,0,.09-.01.13-.19.31-.37.63-.51.96-.49,1.05-1.05,2.05-1.61,3.06-.51.89-.96,1.82-1.45,2.71-1.31,2.36-2.75,4.66-4.39,6.81-.89.02-1.79-.06-2.67-.17-.84-.13-1.68-.3-2.5-.54-.28-.08-.56-.17-.84-.26-.19-.07-.39-.13-.58-.21-.2-.08-.39-.16-.59-.24-.35-.15-.68-.32-1.02-.5-.02-.19.12-.37.2-.53.35-.55.81-1.02,1.29-1.46.68.05,1.36.13,2.04.18.17.05.37-.02.52.09-.02.1-.12.11-.19.13-.56.15-1.13.3-1.68.46-.12.02-.13.16-.18.25-.09.25-.21.49-.22.76.4.19.86.22,1.29.3,1.43.19,2.88.28,4.31.14.52-.85,1.06-1.69,1.59-2.54.16-.23.29-.48.46-.7.08-.1.03-.24.01-.35-.37-1.29-.77-2.57-1.17-3.85-.17-.54-.34-1.08-.52-1.62-.09-.26-.17-.52-.26-.78-.1-.27-.18-.54-.3-.79-.15-.19-.41-.23-.64-.25.02-.07.05-.13.1-.19.18,0,.36,0,.54-.02.57-.06,1.15-.03,1.72-.07.74.01,1.49-.09,2.23-.12-.14.31-.57.27-.76.55-.09.11-.11.25-.07.39.29,1.11.58,2.22.89,3.32.05.12.06.27.16.36.53-.82.98-1.69,1.47-2.54.19-.36.39-.71.57-1.07.09-.18.09-.38.16-.56.07-.21.14-.42.21-.63.04-.09.07-.18.11-.27-.36-.03-.67-.25-.94-.48h0Z"/>
</svg>