<?xml version="1.0" encoding="UTF-8"?>
<svg id="Capa_1" data-name="Capa 1" xmlns="http://www.w3.org/2000/svg" viewBox="0 0 100 100">
  <defs>
    <style>
      .cls-1 {
        fill: #1a1a1a;
        stroke-width: 0px;
      }
    </style>
  </defs>
  <g id="layer1">
    <g id="g3276">
      <path id="path3278" class="cls-1" d="M54.6,27.75c-1.04-.25-2.18-.05-2.15-.02-.11-.04-.32-.12-.44-.09-.02.01-.03.02-.04.02.03.01.05.02.08.03-.08.03-.1,0-.16-.02.04.05.03.04,0,.1,0,0,0,.02.01.02.16.04.33.11.56.08h0c-.05-.07-.16-.08-.22-.12h-.02c.15.02.27.09.38.15.02-.01.03-.02.04-.03-.03.07-.08.08-.05.15-.26-.04-.44-.13-.53.14.02.03.05.05.08.07-.02.01-.04.02-.05.02,0,.02-.01.04-.02.07.1.09.16.14.28.19,0,.05.01.1.02.15.03.02.03.02.07.01.05.05.02.09.04.13.07.08.33.21.38.3.02.03,0,.07.05.1.09.06.2.1.28.16.03.02.01,0,0,.04.19.09.47.08.63.17.03.03.01.01.01.06.15.04.32.08.48.13.01,0,.02,0,.04-.01t-.01-.08c.1-.06.12-.16.19-.24-.03-.06-.04-.07-.03-.15.13-.02.18-.09.29-.12-.02-.06,0-.07-.06-.1.03-.02.03-.01.07,0,.01-.01.02-.02.04-.03-.04-.03-.07-.06-.11-.09h-.02c.07,0,.13.02.2,0,.02,0,.02,0,.03,0-.01-.02-.03-.04-.05-.07,0,0,.01,0,.01-.01.09.05.15.06.29.06,0-.03.02-.07.02-.09.02,0,.04,0,.06-.01-.02.03-.04.06-.06.09,0,.01.01.02.01.03.28.06.47-.05.73-.09v-.07c.32-.09.76.1,1.07.08.1,0-1.13-.79-2.4-1.1"/>
    </g>
    <g id="g3280">
      <path id="path3282" class="cls-1" d="M48.72,28.32c.15.02.35.04.51.12.16.07.2.18.38.21-.04.03-.06.01-.12,0,.04.07.08.11.19.13-.02,0-.04.01-.05.02.05.04.08.07.14.1h.05s0-.04-.05-.05h0c.35.09.66.34,1.05.4.02-.05,0-.03.04-.03h0c-.12-.16-.38-.33-.57-.41,0-.02,0-.03-.01-.05.07.04.15.08.23.12v-.04c.21.13.46.27.67.4.02,0,.04,0,.05-.01h.02c-.07-.05-.11-.05-.16-.13.04.01.07.02.1.03h.01s0-.05-.03-.09c0,0,0-.02.01-.02.03.02.02.01.03.04.07,0,.05-.01.09-.05.02.04.02.04.05.07h.01s-.01-.03-.02-.04h.08v-.02c-.07-.05-.13-.09-.22-.12,0,0-.01-.02-.01-.02.02,0,.04,0,.07-.01h0c-.06-.06-.27-.23-.42-.21,0-.07-.03-.16-.12-.18h.1s.01-.02.01-.02c-.01-.02-.03-.03-.04-.05.15.01.29.14.42.14-.05.15.25.2.36.28.08-.01.08-.04.14-.04-.02,0-.03-.02-.04-.03.02-.04.01-.02.04-.04.05.02.12.04.18.02v.05h.08s-.02-.04-.03-.05c.04-.02,0-.01.05,0,.01,0,.02,0,.03-.01-.02-.02-.03-.04-.04-.07.1.03.15.02.24,0-.03-.1-.16-.14-.28-.13-.02-.03,0-.02.03-.03-.04,0-.08,0-.12,0-.04-.02-.08-.09-.2-.09.03-.02,0-.01.05-.02-.04-.04-.15-.09-.23-.09,0,0-.02-.01-.02-.02.02-.01.03-.02.05-.03-.13-.02-.15-.05-.24-.01-.07-.06-.07-.09-.19-.1,0-.01.02-.02.02-.03-.09-.03-.19-.05-.28-.07h0s.05-.02.07-.02c0-.04,0-.03-.01-.07.09.02.17.04.26.07,0-.01.01-.02.02-.02-.05-.05-.13-.09-.21-.09,0,0,0-.02.01-.03.04.01.08.03.13.04,0-.01,0-.01.01-.01v-.04c-.1-.08-.13-.08-.29-.07.04-.05.05-.03.12-.04h0c-.12-.1-.29-.06-.42-.13,0,0-.11-.13-.13-.14-.08-.05-.38-.1-.44-.11,0-.02.02-.03.02-.04-.12-.05-.23-.08-.35-.14h-.03.03s.06,0,.09,0v-.02c-.06-.09-.59.13-.69.27-.04-.02.21.19.15.18-.01.01-.02.02-.03.03h-.02c.04.05.29.04.34.04,0,.01.01.02.01.03-.04.02-.05-.02-.11,0h-.03c.03.08.11.06.19.03.01.03.02.06.03.09-.05-.02-.08-.02-.15-.02.02.08.16.1.26.1,0-.02,0-.03.01-.04-.04-.02-.08-.02-.12-.03,0-.02.01-.04.02-.07.07.02.1.06.2.08.02.06.03.12.05.18-.19.02-.37.04-.55.06,0,.01-.01.02-.02.02.04.04.08.08.12.11h0c-.13-.02-.27,0-.39-.01-.26-.04-.46-.18-.71-.03,0,.01.01.02.01.03.07.13.3.08.44.1M40.62,53.75c.14.23.27.55.45.74.38.39,1.01.6,1.25,1.1.12.12.23.23.35.34,0,.05-.01.11-.02.16.02.16.09.38.06.54-.01.08-.04.18-.03.25.01.06.02.11.03.16-.03.16-.1.32-.1.53-.05.02-.02,0-.08,0,0,.05,0,.12,0,.17h.05c-.02.1-.03.21-.04.31.02.1.03.21.04.32-.01.04-.08.05-.09.12,0,.04.02.09.02.13-.02.21-.06.4-.12.52-.07.13,0,.26-.11.34.02.17.07.25.06.43-.04.01-.03.01-.08.01-.03.4.16.61.04.91.02,0,.06.13.04.16-.1.26-.21.52-.24.82-.01-.02-.02-.02-.04-.03v.16s-.07-.02-.1-.03c0,0-.01,0-.01.01.02.21.13.45.21.64-.01.25-.16.32.03.6v.05s-.04-.02-.05-.04c-.04.12.02.24,0,.37.04.05.08.05.15.08.02,0,.03,0,.04-.01.02-.13.01-.27-.05-.37,0-.01.02-.02.02-.03.03.01.05.03.08.04h.02c-.01-.05.02-.04-.03-.05.01-.02.02-.03.02-.05.02.02.04.05.07.07-.01.02-.03.03-.04.05.06.04.09.18.01.2.03.02.04.03.07.05-.03.2,0,.34,0,.55h-.02c-.02-.06-.07-.24-.04-.26-.04-.07-.09-.1-.16-.13-.04.05-.07.13-.08.21.03.03.07.07.1.1,0,.05,0,.1-.01.16h-.08s.02.06.03.08c-.03.02-.06.04-.09.07v.05s.05.03.08.04c.02-.02.04-.03.05-.04.05.04.16.06.21.12-.02,0-.03-.02-.04-.02.02.04.01.03.03.05-.01.04-.02.08-.03.12-.04-.03-.05-.04-.12-.04h0s.02.03.03.04c-.02.01-.04.02-.05.03.06.12.08.3.15.4.05.03.11.05.16.08-.03-.01-.07-.02-.09-.02h0c.01.05.02.1.03.15.02,0,.04.02.07.02.01-.03.03-.07.04-.11.01.03.02.06.03.09h-.04s-.01,0-.01.01c.04.07.05.1.05.2.05-.01.1-.03.14-.04.03.03.02.03.07.04-.01.02-.02.03-.02.05-.04-.01-.08-.02-.12-.03,0,0,0,.01-.01.02.04.08.1.12.18.16,0-.02-.02-.03-.02-.04.07.05.13.1.2.16h0c-.06-.02-.12-.04-.19-.08.08.1.14.14.24.15-.01.04,0,0-.02.04.09.08.47.34.58.31,0,.04,0,.01-.01.04.11.11.47.24.64.29h0s-.05-.07-.08-.1c.12.05.2.01.29.09v-.05c.06.01.12.02.16.02h.01s.01-.01.02-.02c0-.01,0-.02,0-.04-.31-.04-.42-.31-.68-.38.01-.02.02-.03.03-.05-.08-.08-.17-.07-.24-.15-.01,0-.02,0-.02-.01.01,0,.02-.02.04-.02.05.02.12.04.17.08v-.02c-.09-.12-.24-.2-.26-.4,0-.01,0-.02.01-.03.05-.01.11-.02.16-.03.04-.03.03-.1.02-.19.08-.05.23-.09.29-.15.02-.03.02-.1.01-.18-.19-.13-.48-.16-.41-.44.09-.07.21-.1.32-.05h.05s0-.02-.04-.04c.03-.05.04-.04.09-.06,0-.07-.02-.14-.04-.2.05-.07.09-.1.21-.1-.03-.05-.1-.07-.14-.11,0,0-.01-.01-.02-.01.03-.01.05-.02.08-.03.06.04.08.06.12.13.03,0,.07.01.1.02.01-.02.02-.03.03-.04,0-.08,0-.1-.03-.14-.01-.01-.02-.02-.03-.03-.04,0-.09,0-.13.01.02.02.04.03.05.04v.02s-.05-.02-.08-.03c-.04-.03-.04-.05-.12-.08-.04-.07-.04-.21-.07-.3.09-.11.29.11.41.14.09,0,.19,0,.28-.02.02-.04.04-.08.06-.13-.02,0-.03.02-.05.02-.01-.02-.03-.03-.04-.04.06-.09.14-.18.09-.29.02.01.03.02.05.02h.01s-.02-.04-.03-.07c.17.07.92.18,1.13.05.05-.02.23-.24.3-.3v-.16c-.1-.04-.15-.04-.16-.16.03-.03.06-.06.09-.09-.05-.21-.26-.23-.36-.4.02-.02.03-.04.05-.06.01,0,.02,0,.03-.01.03.05.07.07.08.13.08.02.15.03.23.05.07.05.14.19.23.2.07.02.13-.04.2,0,.05.03.09.09.19.08.24-.03.28-.14.42-.24.09-.03.16-.07.25-.11.06-.08.12-.16.19-.24.15-.07.31-.14.46-.2.19-.12.29-.35.46-.48.21-.16.49-.2.57-.51-.02,0-.03,0-.04-.01.03-.11.04-.26.1-.43.05-.13.88-.55,1.09-.48.05.03.09.07.14.11,0-.03.01-.05.02-.09-.02,0-.03,0-.05-.01h0c.11-.04.21-.2.32-.16.04-.03.04-.02,0-.06v-.03c.22,0,.64.09.85.19t.06-.04c-.01-.19.21-.12.35-.18.09-.08.09-.3.23-.36.22-.12.21-.18.36-.29.07-.04.14-.04.18-.1.15-.26.05-.37.37-.49.05-.18.1-.31.2-.44.05-.05.1-.11.15-.18.05-.15.02-.29.08-.43.07-.15.2-.25.21-.44.14-.08.27-.05.41-.15.2-.18.4-.35.6-.53.07-.02.14-.03.21-.04.09-.08.18-.14.27-.21.32-.21.59-.4.72-.81,0-.08,0-.16.01-.24.03-.15.21-1.13.2-1.13-9.1-.02-15.85.09-15.85.09M40.98,36.62c.09.07.34-.07.46-.07.05.07.16.35.23.36.1.23-.18.34-.15.51,0,0,.02,0,.03.02.04-.05.04-.04.02-.1.01,0,.02,0,.03-.01.02.06,0,.05.05.05-.04.03-.08.06-.13.1-.02.04.01.16.03.27.02,0,.04.01.05.02.01-.01.02-.03.02-.04,0,0,.01.02.01.02-.04.06-.04.09-.08.14.03,0,.02,0,.04-.01.03.04.04.07.02.13,0,.18.19.18.11.37.06.09.27.03.32.04,0-.15.18-.3.25-.44.08-.19,0-.44,0-.66.02-.01.04-.02.07-.03-.03-.16-.05-.34-.08-.5.05-.64.57-.8,1.08-.95.24-.08.15-.28.59-.19.12-.21.49-.17.7-.23,0,0,0-.02.01-.02-.04-.03-.03-.01-.05-.07h0c.05-.05.24-.09.3-.09.02-.03.04-.05.07-.09-.04-.05-.13-.09-.22-.09h0c.08,0,.15.01.23.03v.09s.03-.24.04-.37c-.02-.01-.04-.02-.07-.02-.04-.03,0,0-.01-.06,0-.05.08-.16.12-.22-.03-.03,0-.22,0-.27.05-.05.11-.1.16-.15-.14.19-.07.19-.11.41.04.01.07.02.1.03-.07.07-.14.09-.18.18,0,0,0,.01-.01.02.02.02.02.02.06.03.07-.15.35-.24.47-.44-.08-.08-.04-.13-.07-.23.05.05.08.09.16.12-.01.02-.03.04-.04.06h0c.18.03.43-.2.52-.34-.02-.04,0-.02-.04-.04,0,0,0-.02-.01-.02.21-.03.52.03.75.01-.02-.03-.04-.05-.06-.08-.18.02-.34-.04-.51,0,.21-.16.85.07,1.13-.04.03.07.1.07.24.07.01-.02.03-.04.05-.07-.01-.02-.02-.04-.04-.05-.03.06,0,.07-.07.07-.03,0-.06-.01-.09-.02-.02-.07.01-.17-.12-.19v-.02c.05-.01.12-.03.16-.04-.01-.02-.03-.05-.04-.08.08-.09.25-.15.32-.22.19.03.31.03.49-.07.03.03.02.02.02.07.23-.02.45,0,.69-.06-.01-.03-.02-.05-.03-.08.03,0,.15.05.19.05.18.04.53,0,.68-.05.01,0,.02.01.02.03-.06,0-.11.03-.16.04,0,0-.01.02-.01.02.06.01.13.03.19.04-.23.03-.46.07-.68.11,0,0,0,.02-.01.02.03,0,.05-.01.08-.02-.02.01-.03.02-.05.02-.05.07-.07.07-.07.19.02,0,.05,0,.07,0,.04.06.02.1.11.1.16.01.32-.1.5-.11.02-.04,0-.06.06-.08,0,.01.02.02.02.04.02-.02.03-.03.05-.04.01.08.05.08.12.1.1-.11.74.03.92-.03h.02s-.07-.05-.14-.05c.03-.02.04-.01.06-.04.14.05.3.02.51.02v-.03c0-.07-.1-.13-.18-.14h0s.07-.08.09-.12c-.03-.04-.02-.02-.02-.07-.02,0-.04-.01-.07-.02-.12.05-.39.13-.4.29-.08.01-.12,0-.13-.09-.27.03-.38-.11-.61-.14-.02-.02-.03-.04-.05-.06h.05s0-.02.01-.02c-.07-.03-.14-.05-.21-.08-.04-.03-.07-.14-.1-.19.02-.02.04-.04.05-.05-.03-.03-.07-.04-.13-.04v-.02c.13-.02.18-.08.3-.13,0-.01.02-.03.02-.04h0c-.12.02-.23,0-.4,0-.02-.08-.09-.12-.18-.13,0-.01,0-.02-.01-.02.16.01.22.09.36.1.12-.02.25-.03.37-.05,0-.01,0-.02,0-.03.03-.03,0-.03-.01-.07.01,0,.03.01.04.02h0c-.29-.4-1.31-.27-1.75-.19-.18.03-.3.2-.54.2.1-.1.73-.34.92-.4,0,0,.39.03.42.02.03-.03.07-.07.1-.12.16-.08.4-.05.61,0,.27.08.53.1.8.2.17.06.68.27.86.24.14-.02.26-.06.38-.12.28-.12.86.18,1.05-.03.02-.04.01,0-.01-.06.01,0,.02.01.02.01.03-.06,0-.25.04-.31-.07-.02-.14-.05-.2-.07,0-.04,0,0,.01-.05-.13-.01-.13-.04-.21-.03-.02-.14-.15-.19-.3-.21h0c.1,0,.2.01.31.03-.05-.08-.18-.09-.2-.17-.1-.03-.18,0-.26-.05-.04-.03-.03-.03-.03-.08-.05-.03-.18-.02-.23-.06-.05-.04-.06-.09-.14-.12-.02-.05-.03-.02.01-.05,0-.03-.21-.18-.31-.2.04-.03.03-.02.07-.02,0-.03,0-.1.01-.18-.03-.02-.05-.03-.08-.04-.01,0,.03-.07.03-.14-.11-.04-.23-.09-.21-.21-.02,0-.04,0-.06,0-.07-.11-.34-.46-.34-.57-.29.08-.66.54-1.06.23-.06,0-.1-.1-.23-.12,0-.03,0-.07-.01-.1-.03,0-.05-.01-.08-.02.03-.09.07-.11.06-.24.04-.02.08-.03.13-.05-.01-.02-.02-.03-.04-.05-.03.02-.07.03-.1.04-.08-.09-.25-.13-.38-.16,0,0-.01-.02-.01-.02h0s.02-.02.05-.03h0c-.09-.09-.28-.23-.4-.27-.1,0-.19,0-.3.01-.24-.08-.48-.18-.73-.18-.02.02-.05.05-.07.07,0,.02,0,.03-.01.04.02.03.02.03.05.04-.05.06-.12.09-.21.11.09.11.03.13.08.19-.04.04-.32.15-.43.15-.01.02-.02.04-.03.07.14.04.27.16.28.35-.12.27-.41.32-.75.37-.12,0-.24,0-.36.01h-.03s0,.12.07.15c-.06.12-.19.26-.1.4-.07.04-.15.11-.23.11,0,.03,0,.07,0,.1-.01,0-.03,0-.04.01,0-.04-.03-.04-.04-.09-.1.01-.15.05-.21.09-.04-.02-.08-.04-.12-.05-.03-.19-.15-.3-.23-.47.05-.05.11-.1.15-.16,0-.04,0-.07,0-.09.07-.07.14-.1.19-.19-.25-.02-.95-.23-1.09-.37-.05-.04-.07-.15-.14-.21-.11-.05-.21-.1-.32-.15-.12,0-.24,0-.36,0h-.02c.08-.09.14-.22.21-.32-.06-.03-.15-.03-.25-.03,0-.02,0-.04,0-.05.23-.27.97-.54,1.29-.52-.02-.02-.03-.03-.04-.05.11,0,.24.02.36,0,.04-.06.03-.06,0-.11h-.03c.19.04.81.03,1.09-.11.04-.03.01-.01,0-.04.13-.02.25-.05.37-.08h.03s-.04-.03-.08-.04c0-.01,0-.02-.01-.02.08,0,.16.01.24.02,0,.06.18.18.26.2.02-.02,0,0,.01-.03,0,0,.01-.01.01-.01-.03,0-.01,0-.04.01-.02-.04-.03-.05-.08-.09h0s.08.03.12.04c0-.03,0-.07,0-.1.04.03.09.07.14.1,0-.01,0-.02,0-.03.2-.05.38-.04.54-.09-.03-.03-.06-.06-.09-.09.01,0-1.1-.62-2.38-.59-.83.01-3.82,1.03-6.19,2.23-1.81.91-3.2,2.05-3.28,2.14-.73.63-1.41,1.4-1.78,2.33-.04.04-.08.09-.13.14-.03.06-.24.6-.24.63.03,0,.07,0,.1,0-.02.16.08.16.03.36-.06.29-.26.63-.35.94-.02.07-.08.22-.06.3.02.11.05.25.02.38-.04.08-.09.15-.13.23-.05,0-.07.02-.13,0t-.01,0c-.02.16.04.25.03.39.03,0,.02,0,.05-.02.09.25.04.52-.14.69.05.23.18.36.13.72h0s.02.02.02.02c.21-.21.16-.19.18-.47-.01-.03-.02-.06-.02-.08-.02.02-.04.04-.05.07h-.01c-.03-.18.15-.64.19-.83.02-.13-.04-.34-.01-.49.08-.35.12-1.1.41-1.32.01.03.03.05.04.08.01-.02.03-.03.04-.03.07.2-.19.51-.15.79-.07.04-.09.08-.14.15.01,0,.02.02.03.03.02-.02.04-.05.07-.07,0,.07-.03.29.04.36.02.03,0,.01.03,0,0,0,.01.02.02.02-.04.08-.08.12-.07.25.03.02.02.02.06.03-.01.04-.02.09-.03.14.02,0,.03,0,.05,0,0,.15-.06.2-.14.31.02.14.08.18.14.29-.04.05-.04.08-.05.15.11.15.26,1.19.04,1.34-.05.08-.05.05-.02.13-.04.05-.06.04-.12.07-.16.4.19.51.2.83.03.01.05.03.08.05,0,0,1.31-.04,2.09-.06.03,0-.05-.03-.09-.05-.03-.04-.19-.83-.16-.94.03-.04.05-.08.08-.12-.11-.25.07-.51.16-.73.08-.2.16-.4.24-.59.08-.09.23-.07.27-.23.03-.11-.02-.21.03-.36.05-.13.19-.16.19-.33.08,0,.2-.05.21-.11.01-.03.03-.04.04-.07,0,.04,0,.03-.01.07.05-.03.04-.04.07-.03.02-.02.03-.04.05-.06-.02-.02-.03-.03-.04-.05.2.02.36-.06.53-.16.11.03.07-.05.05-.11.03-.03.06-.04.1-.07,0,0,0,.01.01.01l-.05.05.04.02s.24-.06.35-.05c.1.01.34.1.42.15.01,0,.02,0,.03,0v-.04s-.05,0-.08,0c0-.01-.01-.02-.01-.04.03-.01.06-.02.09-.03.01.04.08.11.12.15,0,0-.01.01-.02.02,0,.01-.01.02-.02.03.04.03.08.06.11.09.06-.02.12-.04.16-.07.01.03.02.05.02.08.09-.02.09-.06.14-.11.04.05.09.12.15.15.01,0,.02.01.03.02h.01l.05-.05s-.08-.07-.12-.12l-.02-.02s.06-.05.13-.06c.03-.04.02-.04.01-.11-.03.02-.06.04-.09.05h-.01s-.02-.02-.02-.03c.18-.12.39-.09.58-.05.01-.03.03-.05.04-.08.01,0,.02-.01.03-.03v.15c.26.03.46-.07.65.14.04.04.04.14.07.16"/>
    </g>
    <g id="g3284">
      <path id="path3286" class="cls-1" d="M48.99,27.71c-.05.02-.1.03-.15.05,0,.02-.01.04-.02.05h0c.08.05.34.1.44.05.02-.02.05-.04.08-.07v-.04c-.12-.03-.2-.05-.35-.05M49.61,27.75s0,0,.03.02c-.01,0-.02-.02-.03-.02M47.73,28.27s-.03-.03-.04-.05c-.06-.04-.14-.05-.21-.05.01-.03.03-.05.04-.08-.09-.05-.27-.12-.34-.2-.04-.04.01-.1-.07-.13-.01.01-.02.02-.03.03-.21-.02-.46.09-.53.24-.1,0-.2,0-.27.04.07.04.23.03.31.03-.02.01-.03.02-.05.03-.01.02-.02.04-.04.07.18.03.46-.02.57-.09.07.02.14.03.2.05-.02.01-.04.02-.05.02.11.1.31.1.52.09"/>
    </g>
    <g id="g3288">
      <path id="path3290" class="cls-1" d="M47.09,27.86l-.03-.03s-.02.04-.03.07c.03-.01.05-.02.08-.03h-.02ZM50.28,28.29s-.03-.02-.04-.03c.04-.03.03,0,.02-.05-.15,0-.13-.06-.24-.09-.03.01-.05.03-.08.04.02.04.02.05,0,.1.15,0,.2,0,.34.03M51.23,28.15s0,.02-.01.02h.02s0-.02-.01-.02"/>
    </g>
    <g id="g3292">
      <path id="path3294" class="cls-1" d="M50.3,28.24s0,0,.03.02c-.01,0-.02-.02-.03-.02M46.9,28.29c-.06.02-.12.03-.19.05,0,.02.01.05.01.07.18-.02.34,0,.5-.05,0-.01,0-.02.01-.02-.11-.02-.22-.04-.33-.05"/>
    </g>
    <g id="g3296">
      <path id="path3298" class="cls-1" d="M48.24,28.3v.03h.08s-.05-.03-.08-.03M49.95,28.48c-.03-.07-.12-.1-.2-.13,0,.03,0,.05.01.08-.03,0-.07,0-.11,0,.01.01.01.02.02.02.12.02.21.03.3.06,0-.01-.02-.02-.02-.03M48.03,28.37s0,.02-.01.02c.03.02.05.04.08.07.03,0,.07.01.1.02,0,0,0-.02.01-.02v-.03c-.06-.02-.12-.04-.19-.05"/>
    </g>
    <g id="g3300">
      <path id="path3302" class="cls-1" d="M48.4,28.4s-.08-.02-.12-.02c.02.05.05.05.09.09h.05s0-.02.01-.02c-.01-.02-.02-.03-.04-.04M47.56,28.5s-.08.03-.12.04c0,.01-.02.03-.02.04.01.02.02.03.03.05.09.02.13-.03.21-.05.02-.02.03-.03.04-.04-.05-.03-.07-.04-.14-.04M49.35,28.57v.02s.02,0,.03-.01h0s-.02-.01-.03-.01"/>
    </g>
    <g id="g3304">
      <path id="path3306" class="cls-1" d="M48.8,28.65s.05.04.09.05h.05s-.09-.04-.14-.05M54.63,28.91s0,0,.03.02c-.02-.02,0,0-.03-.02M47.61,28.83s.02.02.02.02h.08s-.07-.02-.1-.02M59.15,29.72c-.09.03-.13-.04-.21-.08-.02,0-.04,0-.06,0,.01.01.03.02.04.04-.13.03-.29-.06-.43-.09,0,0,0,.01-.01.01,0,.02.02.03.03.05-.06-.04-.1-.09-.19-.1h0s.05.05.07.08h0c-.06-.01-.04-.02-.09.02-.13-.1-.25-.25-.47-.27.02.02.03.04.05.05-.03-.01-.06-.02-.1-.04-.03.03-.06.05-.09.08,0,0-.01.02-.01.03.15.04.31.08.46.12-.08.05-.15.03-.28,0h-.01s0,.03.01.03c.21.05.3.12.44.19,0,.01,0,.02.01.03-.04-.01-.08-.02-.12-.03,0,0,0,.01-.01.01,0,.02.02.04.02.05.32.08,1.1.47,1.37.16v-.02c-.14-.09-.34-.22-.43-.32"/>
    </g>
    <g id="g3308">
      <path id="path3310" class="cls-1" d="M49.72,29.18v.02s.02-.02.02-.02h-.02M50.81,29.24s.01.02.05.03h0s-.01-.03-.05-.03M51.08,29.29s-.06-.02-.09-.02c-.01.04,0,.03-.08.03h0c.04.06.09.09.15.11.02-.02.04-.03.06-.04-.02-.02-.03-.05-.04-.07"/>
    </g>
    <g id="g3312">
      <path id="path3314" class="cls-1" d="M50.16,29.36s-.04,0-.05-.01c-.02,0-.03.01-.04.02,0,.01-.02.02-.02.03.04.03.1.02.16.01,0,0,.02-.01.02-.02-.02-.01-.04-.02-.06-.03M68.49,39.51c-.06-.12-.12-.24-.18-.36.01.02.02.03.04.05,0,0,.01,0,.02.02v-.03c.01-.05-.05-.13-.09-.19.01,0,.02,0,.02,0,.03.03.05.06.08.09h.01s-.04-.1-.05-.14c.04.04.08.08.13.13-.06-.13-.22-.4-.35-.45.02-.05,0-.03.04-.02-.04-.15-.26-.29-.29-.51h.02c.02.13.1.09.16.14h.01c-.05-.06-.09-.13-.14-.2.02-.02.04-.03.07-.05.06-.04.1.08.18.08,0,.05.01.05.02.11.01-.14,0-.32-.03-.37-.06-.07-.1-.18-.16-.27-.18-.29-.31-.54-.43-.88-.03-.08-1.11-1.76-2.48-3.05-1.42-1.32-3.13-2.25-3.1-2.25-.04.04-.07.07-.13.09.01.08,0,.08.03.13-.04.01-.06.03-.1.05.04.07.1.1.14.15.01.05.02.09.03.13.1.16.33.24.42.44.05.01.05,0,.09-.03.01.05.03.09.05.14.05.07.37.25.48.18.05-.03.06-.12.04-.19.02,0,.04-.02.07-.03,0-.02-.02-.03-.02-.05v-.02c.33.16.49.57.83.71.02.04.04.08.05.13-.06.02-.07.05-.09.09.07.09.14.15.25.21-.03.04-.02.02-.08,0h0s.05.07.1.09c.02,0,.04,0,.07,0v-.09s-.07-.1-.13-.13c0-.04,0-.02.02-.04-.02-.03-.04-.06-.07-.08.03.03.05.05.07.08.02.02.05.04.07.07.04,0,.09,0,.14.01h.01v-.03s-.07-.08-.1-.12c.02-.03.02-.02.01-.05.04,0,.09.01.13.02-.02-.03-.03-.05-.05-.09.03.02.49.44.47.46-.07.03-.05.07-.03.13-.02,0-.04.01-.05.02-.08.1-.1.01-.2,0-.04-.04-.03-.01-.01-.05-.04-.03-.08-.07-.11-.09v.07s-.04,0-.07-.01c.01.07-.02.04-.04.13-.02,0-.04-.01-.05-.02-.02-.02-.03-.08-.04-.11-.02-.03-.02-.03-.05-.04,0,.02.01.03.02.05-.1,0-.17-.08-.24-.14-.02,0,0,0,.01-.02-.03-.03-.04-.05-.1-.05,0,0-.01-.02-.01-.02s0-.02.01-.02c.08.04.15.1.23.14-.04-.1-.15-.26-.28-.22-.03-.03-.04-.12-.08-.17.02.01.03.02.05.03,0-.02,0-.04.01-.05-.11-.13-.26-.19-.32-.37-.02.01-.05.02-.08.03.01.03.02.06.03.09h-.04s-.04.03-.06.03c.04.21.46.53.44.63.03,0,.06,0,.09.01.05.09.09.13.15.22-.05.02-.03,0-.03.07-.07-.02-.08-.04-.17-.03v.05c-.05,0-.11.01-.16.02l-.02.05s.03.05.04.08c.04.02.03.02.08,0,.03.07.05.08.04.13-.03.04,0,.03-.05.01h-.01c.01.09,0,.1.04.15-.03,0-.06-.01-.09-.02-.04-.12-.09-.23-.13-.35,0,0-.01,0-.02-.01h-.01c.04.15.17.41.08.49-.06.05-.18.07-.23.14.03.07.07.14.1.22-.04.03-.07.05-.13.06-.03.04-.05.08,0,.12-.01.01-.02.02-.03.03-.15.03-.31-.1-.41-.13-.01,0-.01,0-.02.01.07.1.15.15.2.27.01.01.02.03.03.04h0c-.09,0-.15-.02-.21.03-.05-.03-.1-.07-.14-.1-.08.04-.21.02-.27.09,0,0-.02,0-.02,0,.02.1.09.09.15.14-.02,0-.04,0-.07.01.13.12.31.08.48.15.01,0,.56.52.57.54-.02-.01-.04-.03-.05-.04,0,0-.01,0-.01.01.14.19.29.47.29.83-.2.08-.68-.05-.95-.09-.07,0-.25.07-.36.03-.05-.02-.07-.06-.15-.04-.07-.02-.1.05-.08.11-.05.02-.13.02-.15.07-.02.01-.03.02-.04.03,0,.12.07.11.09.2.04,0,.03,0,.07-.02.02.2.14.34.21.53.06.16.03.66-.01.83.05.05.08.08.13.14.02-.02.04-.03.07-.04.05.16.1.32.1.57.1-.03.24.03.3,0,.04-.01.06-.06.13-.08.2-.09.3.39.52.43.04-.04.21-.21.23-.25.16,0,.27-.03.4.02,0-.02.02-.03.03-.05.07.01.07.02.1.04.04-.08.07-.23.1-.3.04-.02.05-.02.13-.02,0-.07-.05-.18-.01-.3.02-.07.08-.07.1-.16-.35-.24-.03-.54-.13-.74.06-.09.12-.05.21-.12.05-.03.11-.15.15-.19-.02-.13-.22-.32-.17-.46.01-.04.07-.07.09-.11.18.05.29.13.45.2.08-.08.06-.22.2-.24.01-.05.02-.1.04-.16v-.02c.31.06.49.49.65.71,0,0,.44.43.46.44.01,0,.06-.03.1,0,.03.04.06.09.09.14.34.32.43.41.58.9-.03.02-.1.03-.14.09-.12,0-.12-.02-.19-.08-.02.03-.02.02-.02.06-.02-.01-.03-.02-.04-.04h-.01s-.02.1.01.15c.02.04.44.38.49.4h.01c-.03-.18-.12-.27-.12-.49.02.02.04.03.07.05h.01c.03-.09,0-.21-.03-.29.01-.07,0-.05.05-.07-.04-.15-.11-.16-.19-.26-.02-.09-.04-.18-.07-.27,0,0,.02-.01.02-.02.05.08.18.21.26.26-.07-.26-.31-.47-.53-.58-.03-.04-.04-.07-.04-.15-.07-.04-.12-.01-.19-.07-.17-.14-.25-.36-.38-.53-.12-.15-.34-.21-.4-.41,0-.03.01-.05.01-.08-.02-.06-.09-.08-.11-.16.06-.02.06-.03.09-.08.02,0,.03,0,.04,0,.04.05.13.21.16.3,0,0,.02.01.02.02v-.09s.05.09.07.13c.01,0,.02.02.03.03-.01-.04-.03-.07-.04-.11.11.04.15.23.21.3.08.1.21.16.29.24-.02,0-.03,0-.04-.01.03.05.05.07.08.11.02,0,.04,0,.05,0l-.05-.05s.01,0,.02,0c.02.02.04.03.07.05,0,.01,0,.02.01.03-.02,0-.04.01-.07.02.04.05.04,0,.1.03.13.07.34.29.42.41.07.17.13.34.2.52.08.14.25.29.32.45.03,0,0,0,.03-.01,0,.01-.03.06,0,.12.03.05.1.12.19.13-.02.07-.02.04-.03.14.08.12.16.23.21.38.01.02.02.02.03.03h.01s-.01-.06-.02-.09h.01c.03.06.05.12.08.18,0,0,.01.01.02.01-.01-.03-.02-.06-.02-.09.02.03.05.05.07.08h.01M45.91,30.25c-.07-.03-.14-.04-.24-.05-.02.01-.04.02-.05.02.03.07.21.13.29.15h.02c.01-.05,0-.08-.01-.12"/>
    </g>
    <g id="g3316">
      <path id="path3318" class="cls-1" d="M51.73,30.6s0,.01.03.03h.01s.01-.01.01-.02c-.02,0-.04,0-.05-.01M52.35,31.16s.02.02.02.03h.02s-.03-.03-.04-.03M51.96,31.36s-.05.01-.08.03c-.01.07-.01.02-.03.07.16-.01.31-.03.46-.04-.12-.01-.23-.03-.35-.05M52.73,31.6s-.01.02.02.05l.03-.03h0s-.03-.02-.05-.02M50.26,31.99s0,.02-.01.02c.26.17.45.31.8.42,0,0,.02-.01.02-.01v-.03c-.19-.16-.5-.38-.81-.4M53.24,32.18s0,.03-.01.03c.04-.02.02.01.03-.03h-.02M63.24,34.47s-.02-.05-.02-.07c-.06,0-.12-.01-.16-.02.02-.04.08-.12.07-.2-.03-.12-.24-.35-.37-.2-.01,0-.02-.01-.03-.01-.08-.15-.19-.33-.37-.44-.08-.04-.14-.07-.21-.1-.19-.18-.28-.32-.58-.33.04-.02.07-.04.1-.06-.02-.02-.04-.03-.06-.04.04-.1,0-.17.01-.26-.11-.1-.3-.08-.44-.04,0-.07.02-.04-.04-.07.02-.05.04-.08.09-.11-.02-.03-.02-.05-.03-.08-.12-.03-.24.03-.36-.01-.03.04-.02.04,0,.08-.02.05-.01.05.03.1,0,0-.02,0-.03.01-.04,0-.02-.01-.04.03.02.04.04.07.07.11h0c-.05-.03-.1-.06-.15-.1-.02.04-.02.02-.05.07.06.07.19.11.25.12.01.02.02.03.02.04-.02.01-.04.02-.05.03.03.06.04.06.03.13.04,0,.08-.01.12-.02,0-.02.02-.04.02-.06v-.02h.01c.02.13.09.22.12.35h.05s0-.02.01-.02c-.01-.02-.02-.04-.03-.05.03.02.05.03.08.04h.01s-.02-.08-.03-.12c.03.02.06.05.09.07.02.05.02.1,0,.17.03.03.08.05.11.09h.01s-.02-.03-.02-.04h0s.07.02.1.03v-.04c.08.03.11.01.16-.03.09.1.05.26.24.23,0,.1.03.13.06.19-.09.07-.19.02-.29,0,.02.08.04.06.09.1-.02.02-.03.04-.04.05,0,.01,0,.02.01.02.03-.01.06-.02.09-.03.03.04.07.08.1.13-.02.07-.08.1-.15.11-.01.02-.03.03-.04.04.04.04.08.07.12.1.13-.07.25.02.38.06.04-.02.07-.03.1-.04-.02.04-.01.03-.01.08h-.24c0,.11-.07.23-.16.31v.02c.06,0,.07,0,.13.04.04-.05.02-.09.1-.11.06-.02.13.02.19.03,0-.04-.01-.11.02-.14,0,0,.38.03.39.03h.04s-.02-.03-.03-.05c.18.01.27,0,.41-.07,0,0,0-.02.01-.02"/>
    </g>
    <g id="g3320">
      <path id="path3322" class="cls-1" d="M53.94,33.56c-.05-.02-.07.03-.16.05,0-.02-.01-.03-.01-.04.03-.05.07-.08.13-.1,0-.01,0-.02.01-.03,0,0-.01,0-.01-.01-.15.01-.18.04-.26.1-.01-.02-.02-.03-.03-.04-.03,0,0,.01-.03-.01.08-.08.26-.12.29-.15,0,0,.01-.01.02-.02-.05-.05-.18-.04-.27-.05.03-.07,0-.02,0-.12.07-.01.09-.02.13-.07-.08-.07-.2-.14-.31-.12-.04-.05,0-.08-.08-.11-.03.01,0,.02-.04,0,0,.03-.01.02.01.05-.02,0-.04,0-.07,0-.07,0-.04,0-.04-.05-.05,0-.03,0-.04.03-.04-.02-.07-.04-.12-.04,0-.01.02-.02.02-.03-.04-.02-.01-.01-.05,0l-.02-.02v-.05s.09,0,.14,0h0c-.08-.06-.15-.06-.23-.12-.07.03-.14.05-.21.08.03-.12.25-.22.36-.25.01-.02.03-.04.05-.06-.04-.03-.04-.03-.1-.04v-.02c.06.02.1.03.17.03,0,0,.01-.02.02-.02,0-.01,0-.02.01-.03-.06-.02-.13-.03-.19-.05-.07,0-.14,0-.21,0-.05.01-.18.08-.24.12-.13.07-.18.23-.35.26-.02.04-.02.03,0,.08h0s-.03,0-.06-.02c-.08.02-.11.07-.15.12.02.02.05.04.07.06-.1-.02-.22.04-.34.05,0,.04.01.08.02.12.2.05.99.21,1.06.28-.02,0-.03,0-.05,0,.08.03.16.06.24.09.02-.02.02-.02.02-.05.05.02.11.04.16.06-.1.04-.2.07-.37.05,0,.02-.01.04-.02.05.25.1.45-.02.67-.09.02.02.03.05.05.07,0,.1-.06.13-.13.17.02.04.01.03.05.06.05-.02.1-.03.16-.05-.02.04-.03.05-.03.13.07.02.12.03.18.05.09-.05.12-.14.19-.19,0-.04,0-.07-.01-.1M60.62,32.46s-.04,0-.06-.01c-.03.03-.06.06-.09.08.04.04.05.05.06.09.02,0,.03.01.04.02.03-.03.05-.05.08-.07-.01-.04-.02-.08-.03-.12"/>
    </g>
    <g id="g3324">
      <path id="path3326" class="cls-1" d="M53.12,32.43v.02s.02-.01.02-.02h-.02M60.57,32.67s-.03-.02-.05-.02c-.01,0-.03.02-.05.02.05.05.07.08.1.14.01,0,.03.01.04.01-.02-.04-.03-.09-.04-.15"/>
    </g>
    <g id="g3328">
      <path id="path3330" class="cls-1" d="M53.11,32.47l.03.03s.02,0,.02,0h0s-.03-.02-.05-.03M63.54,32.86s.02.02.03.03h.01s0-.01-.04-.03"/>
    </g>
    <g id="g3332">
      <path id="path3334" class="cls-1" d="M60.78,32.82s.02.03.03.04c0,0,.01-.02.01-.02-.01,0-.03-.02-.04-.02M60.57,32.83v.02s.02,0,.03-.01h0s-.02-.01-.03-.01M60.81,32.92s0,0-.01.01h0s0,.02.01.02h.01s.01-.02.01-.03h-.02M60.76,32.96v.03h.02s0-.01-.02-.03M51.93,32.75h-.07s-.01,0-.02,0c0,.01,0,.02-.01.04.05.01.11.02.16.02-.02-.02-.04-.04-.05-.07"/>
    </g>
    <g id="g3336">
      <path id="path3338" class="cls-1" d="M53.5,32.87s-.01.03-.01.04c.03,0,.06,0,.09,0-.02-.05-.01-.04-.08-.05M61.05,33.05s-.04.06-.1.08c.02.07.04.05.09.08.03-.03.05-.12.01-.16"/>
    </g>
    <g id="g3340">
      <path id="path3342" class="cls-1" d="M60.96,33.06h-.01v.02s.02,0,.02.01c0,0,.01,0,.01-.01,0,0-.02-.02-.02-.02M50.22,32.95s-.03,0-.04-.05c-.05-.05-.03-.04-.01-.11-.01,0-.02,0-.03-.01-.04.02-.09.03-.14.05,0,.01,0,.02-.01.02.13.12.24.18.42.25.04.02.02,0,.03.03.03.03.04.04.09.06.12-.02.1-.08.26-.07,0,0,0,0,.01-.01h0c-.08-.04-.57-.16-.57-.16M61.22,33.14h-.03v.04s.03,0,.05-.01c0-.01-.02-.02-.02-.03M61.29,33.68s-.01-.02-.01-.03c.07-.02.07-.05.12-.08v-.05c-.09-.08-.16-.08-.24-.19-.08-.05-.16-.03-.23.03,0-.03,0-.02.02-.05-.03-.02-.07-.03-.1-.04-.04.03-.1.06-.18.07-.01.08,0,.08-.05.13.04.04.09.03.14.02-.02.07-.04.05-.04.1-.11,0-.21,0-.32,0,0,.07.02.02.04.07-.01,0-.02.01-.03.02.04.04.09.04.15.04-.04.04-.04.05-.08.09.09.12.16.04.31.09-.08.05-.05.05-.05.13-.05.05-.05.04,0,.07-.03.05-.03.02-.02.08-.03,0-.06,0-.09,0-.01.02-.02.04-.03.07.04-.01.09-.02.14-.03-.03.02-.05.04-.09.05.14.35.64-.1.86-.09-.01-.15-.08-.4-.23-.47"/>
    </g>
    <g id="g3344">
      <path id="path3346" class="cls-1" d="M53.65,33.15s0,.02-.01.03c.01,0,.02,0,.03-.01l-.02-.02M64.39,33.43s.02.04.02.05c.03.01.05.02.09.03-.03-.05-.05-.06-.11-.08M49.04,33.17s-.02.03-.03.04c0,0,.01,0,.02.01.03-.02.03-.01.04-.05h-.03"/>
    </g>
    <g id="g3348">
      <path id="path3350" class="cls-1" d="M49.92,33.22s0,.03-.01.04c.01.01.02.02.03.02.07,0,.14-.02.21-.02-.08-.02-.16-.03-.24-.04M61.6,33.53s-.02.04-.03.07c0,.01,0,.02.02.04.02-.01.04-.01.06-.02,0-.01,0-.02.01-.03-.02-.02-.04-.04-.06-.05M48.29,33.19s-.01.03.01.05c0,0,.02-.01.02-.02-.01-.01-.02-.02-.03-.03"/>
    </g>
    <g id="g3352">
      <path id="path3354" class="cls-1" d="M51.19,33.31h-.02s-.01.02-.01.02c.03,0,.05.01.03-.02M48.36,33.23v.02s.02-.02.02-.02h-.02"/>
    </g>
    <g id="g3356">
      <path id="path3358" class="cls-1" d="M51.16,33.34h-.07s-.04.03-.07.04c.04,0,.1,0,.14,0h0s0-.03-.01-.04M52.68,33.41s.02.03.02.04c.01,0,.02-.01.02-.02-.01,0-.03-.01-.04-.02M53.44,33.45s-.03.02-.04.03c0,.02-.01.03-.01.04h.03s.04-.02.06-.04v-.03h-.04M49.18,33.33s0,.01.02,0h-.02"/>
    </g>
    <g id="g3360">
      <path id="path3362" class="cls-1" d="M52.68,33.47s-.01.02-.01.02c.01,0,.02.01.03.01s.02,0,.02-.01c-.01,0-.03-.01-.04-.02M52.73,33.5v.02s.02-.01.03-.02h-.03M64.6,33.82s.05.02.07.04h0s-.02-.03-.07-.04M63.77,33.91s0,.01-.01.02c.03-.01.02,0,.03-.02h-.02M63.63,33.97s0,.02-.01.02t.01.01s.02-.02.02-.02h0s-.02-.01-.02-.01M63.62,34.04v.03h.02s0-.01-.02-.03M47.62,33.68v.02s.02-.02.02-.02h-.02M47.19,33.72s0,.03-.01.04c.02-.02.02,0,.01-.04"/>
    </g>
    <g id="g3364">
      <path id="path3366" class="cls-1" d="M47.4,33.82s-.04.02-.06.02v.02s.08.01.12.01h0s-.01-.04-.05-.05M46.74,33.83s-.02,0-.02.01h0s.04,0,.06-.01"/>
    </g>
    <g id="g3368">
      <path id="path3370" class="cls-1" d="M47.05,33.84s0,.01.02,0h-.02M46.91,33.85s.02.02.02.02h.01s0,0-.03-.02M47.55,33.91s0,.02-.01.02c.02,0,.04.02.05.02h.01s.01-.01.02-.02t-.07-.02M34.38,34.72c-.05.13-.09.23-.12.34h.01c.05-.09.18-.19.1-.34M34.19,35.16s.02-.02.02-.04c0,.02-.02.03-.02.04M44.96,35.34s0,.02-.01.02h.04s-.02-.02-.03-.02M33.98,36.1c-.01.05-.03.11-.04.17,0,0,0,.01.01.02h.02c.02-.06.03-.12.04-.18-.01,0-.02-.01-.03-.02M66.21,36.42s.02.03.03.05v-.03s-.02-.01-.03-.02"/>
    </g>
    <g id="g3372">
      <path id="path3374" class="cls-1" d="M38.45,36.21s-.02.03-.02.04c.02-.02.03-.02.02-.04M39.55,36.18s-.07.04-.09.09c.08.01.13,0,.2,0h0s-.07-.07-.1-.09M38.13,36.35s-.02.02-.03.03c.02,0,.03-.02.05-.02,0,0-.02,0-.02-.01M66.77,37.17v.03s.02,0,.02,0c-.02-.04,0-.02-.02-.04"/>
    </g>
    <g id="g3376">
      <path id="path3378" class="cls-1" d="M65.85,37.12s.02.05.03.08c-.02.02-.04.03-.07.04,0,.15.11.35.2.4.01,0,.02.02.03.03h.01c0-.18-.09-.49-.21-.55"/>
    </g>
    <g id="g3380">
      <path id="path3382" class="cls-1" d="M66.02,37.18s-.02,0-.02.01v.03s.04,0,.05,0c-.01-.04,0-.03-.03-.05M33.41,37.88s0,.02-.01.02c.01.02.02.03.04.04t.01,0c0-.05,0-.04-.04-.06"/>
    </g>
    <g id="g3384">
      <path id="path3386" class="cls-1" d="M66.41,38.49c-.04-.27-.16-.56-.29-.75-.01,0-.02-.01-.04-.02-.01.04-.02.07-.03.1-.05.03-.03.03-.09,0,.01.14.15.26.19.38.04.09.01.2.03.26.05.03.05.07.15.08,0-.03-.01-.07-.01-.09.03,0,.03,0,.07.03h.01M67.98,38v.04s.02.02.03.03c0-.05,0-.05-.03-.08M68.09,38.1s.02.03.02.05h.01s0-.02-.03-.05"/>
    </g>
    <g id="g3388">
      <path id="path3390" class="cls-1" d="M68.01,38.22s.02.04.02.06c-.02-.02-.03-.03-.04-.04.02.02.03.05.04.08.01-.01.02-.02.03-.04-.02-.02-.03-.04-.05-.06M68.13,38.28v.03s.03.03.04.04v-.04s-.03-.02-.04-.03M68.24,38.64v.03s.04.02.05.03c-.01-.02-.03-.04-.05-.06M62.5,38.45s0,.04.02.07c0-.03,0-.04,0-.07h-.02M67.96,38.81v.09s.02.02.03.04c.01,0,.02.01.03.02.01,0,.01-.02.02-.02-.03-.04-.05-.09-.08-.13"/>
    </g>
    <g id="g3392">
      <path id="path3394" class="cls-1" d="M68.18,38.87s-.03-.01-.04-.02c.03.03.07.07.1.1,0-.01.02-.01.03-.03-.03-.02-.05-.04-.08-.06M68.04,39s0,.03.01.04c.02.02.03.03.05.04v-.04s-.04-.03-.06-.04M36.2,39.02v.1s.03-.01.04-.01h0s-.02-.07-.04-.09M68.48,39.55s.02.04.03.07c0-.01.01-.02.01-.02-.02-.02-.03-.03-.04-.05M51.5,59.52s0,.04-.01.05c.02-.01.04-.03.05-.05"/>
    </g>
    <g id="g3396">
      <path id="path3398" class="cls-1" d="M51.12,59.55s-.03.02-.04.02c0,.01.02.02.02.02h.06s-.03-.03-.04-.04M51.21,59.56v.02s.02-.01.02-.02c0,0-.02,0-.02,0ZM49.34,60.69s0,.02-.01.03c.02-.02,0,0,.02-.03h-.01ZM49.31,60.76s0,.02-.02.03c.01,0,.02-.01.03-.02t-.01-.01M48.46,61.52v-.1c-.06,0-.11.02-.16.02-.06.14-.21.21-.33.3h0s.04.03.06.04c.11-.02.19-.06.26-.11v-.05c.07-.02.13-.05.18-.09M41.99,61.87s0,.02.02,0h-.02ZM41.95,62.22s0,.02-.01.02c0,0,.02.01.02.01s0,0,.01-.01c0,0-.02-.02-.02-.02M44.95,63.06c.01.06,0,.07.07.1h0c-.02-.06,0-.08-.07-.1M42.35,63.35s0,.01.03.03c0,0,.01,0,.01-.02h0s-.04-.01-.04-.01ZM42.07,63.61s.02.02.03.03h.04s-.02-.03-.07-.03M42.16,63.86v.03h.03s-.02-.02-.03-.03M42.28,64.02s0,.02-.01.02h.02s0-.02-.01-.02M43.34,65.81h-.01s.02.03.03.03c.01,0,.02,0,.03-.01-.01,0-.03-.02-.05-.02M43.56,65.92s-.02,0-.04-.01c-.02.02-.04.03-.07.04.07.01.1.03.13-.03"/>
    </g>
    <g id="g3400">
      <path id="path3402" class="cls-1" d="M43.84,65.92s-.04,0-.05-.01c-.01,0-.02,0-.04.01.01,0,.02,0,.03.01.01.01.02.02.03.03.02,0,.03-.01.05-.02-.01,0-.01-.02-.02-.02"/>
    </g>
    <g id="g3404">
      <path id="path3406" class="cls-1" d="M43.95,66.11h0c-.1-.02-.14-.02-.2-.05-.01-.08,0-.11-.09-.13.02.08.04.18.04.23.01,0,.03.01.04.01.01-.03.02-.05.03-.08,0,0,.02,0,.02.01.02.05.05.1.11.13-.03-.03-.04-.06-.07-.09h0s.08-.03.11-.03M43.76,66.28s0,.02.01.02c0,0,0-.02.01-.02h-.02ZM44.5,66.53s-.01.02.03.03c-.01-.01-.02-.02-.03-.03M44.84,66.54s.08.03.14.05c0-.01,0-.02.01-.03-.05,0-.1-.02-.15-.02M49.52,26.39c-8.88,0-16.5,5.39-19.76,13.07,3.02-5.37,9.39-11.81,19.75-11.8,9.35,0,16.35,5.64,19.77,11.81-3.26-7.68-10.89-13.08-19.76-13.08"/>
    </g>
    <g id="g3408">
      <path id="path3410" class="cls-1" d="M70,54.37c-2.78,8.51-10.61,15.13-20.52,15.13-10.51,0-17.58-6.53-20.42-14.95,2.96,7.84,10.99,13.46,20.45,13.46,9.51,0,17.61-5.71,20.5-13.64M12.8,53.65c-2.14,0-3.28-1.37-3.29-3.97l-.03-5.97c0-.07.05-.12.12-.13l1.86-.18s.07.01.1.04c.03.02.04.05.04.09l.03,5.91c0,1.3.5,1.96,1.47,1.96.07,0,.15,0,.23-.01,1.14-.11,1.72-.88,1.71-2.3l-.03-5.9c0-.07.05-.12.12-.13l1.87-.18s.07.01.1.04c.03.02.04.05.04.09l.03,5.98c.01,1.6-.47,4.34-3.82,4.66-.19.02-.37.03-.55.03"/>
    </g>
    <g id="g3412">
      <path id="path3414" class="cls-1" d="M19.17,52.8s-.06-.01-.08-.03c-.03-.02-.04-.05-.04-.1l-.05-9.85c0-.07.05-.13.12-.13l1.99-.14s.09.02.12.05l4.21,5.56-.03-5.79c0-.07.05-.12.12-.13l1.61-.12s.07.01.09.03c.03.02.04.05.04.09l.05,9.86c0,.07-.05.13-.12.13l-1.65.12s-.09-.02-.12-.05l-4.55-6.03.03,6.28c0,.07-.05.12-.12.13l-1.6.12h-.02M29.68,52.12s-.07-.02-.09-.04c-.02-.02-.04-.05-.04-.09l-.05-9.83c0-.07.05-.12.12-.13l2.14-.11s.07.01.09.03c.03.02.04.06.04.1l.04,9.82c0,.08-.05.13-.12.13l-2.13.11h0M37.56,51.79s-.09-.03-.12-.08l-4.19-9.7s-.02-.09,0-.12c.02-.03.06-.05.1-.06l2.45-.07c.05,0,.1.03.12.08l2.73,6.34,2.81-6.51s.06-.08.12-.08l1.93-.05s.09.02.11.05c.02.04.03.08.01.12l-4.3,9.96s-.07.07-.11.07l-1.68.05h0ZM45.14,51.6c-.07,0-.13-.05-.13-.13l-.06-9.83s.02-.07.04-.09c.02-.03.05-.04.09-.04h7.88c.07-.01.13.05.13.12v1.92s0,.06-.03.09c-.02.02-.05.03-.09.03h-5.49s0,1.71,0,1.71h3.69c.07,0,.13.05.13.12v1.93s0,.07-.03.09c-.02.02-.05.04-.09.04h-3.69v1.85s5.56,0,5.56,0c.07,0,.13.05.13.13v1.93s0,.07-.03.09c-.02.02-.05.03-.09.03h-7.93ZM64.13,51.89h0l-2.55-.07s-.08-.03-.1-.07l-2.16-3.71-1.4-.04.02,3.58s-.02.07-.04.09c-.02.02-.06.03-.09.03l-2.15-.06c-.07,0-.13-.05-.13-.13l-.04-9.86s.01-.07.04-.09c.02-.02.05-.04.09-.03l5.41.16c1.8.05,2.83,1.2,2.84,3.14.01,1.87-.99,2.65-1.9,2.98l2.27,3.9s.02.09,0,.13-.07.06-.11.06M57.89,45.84l1.75.05c.08,0,.15,0,.23,0,.65,0,1.02-.09,1.22-.3.16-.16.24-.42.24-.83,0-.47-.09-.88-1.15-.92l-2.29-.07v2.07ZM69.73,52.47c-.14,0-.27,0-.42-.01-1.52-.08-3.11-1.03-3.56-1.32-.04-.03-.06-.07-.06-.11v-2.27s.02-.09.06-.11c.04-.02.09-.02.13,0,1.38.92,2.7,1.52,3.44,1.55.7.04,1.17-.06,1.4-.3.12-.12.18-.26.17-.45,0-.23-.23-.44-.71-.69-.28-.14-.63-.28-.99-.43-1.54-.63-3.64-1.49-3.65-3.82,0-.77.24-1.42.73-1.91.63-.63,1.64-.94,2.77-.89,1.33.08,2.91.75,3.65,1.2.04.02.06.06.06.11v2.2s-.02.09-.05.11c-.04.02-.09.02-.13,0-.46-.3-2.05-1.28-3.53-1.36-.53-.03-.79.12-.9.23-.11.11-.13.22-.13.28,0,.24.24.48.72.74.3.16.66.31,1.06.47,1.51.64,3.59,1.51,3.59,3.6,0,.94-.26,1.69-.8,2.22-.63.63-1.58.95-2.84.95M83.17,53.09h-.01l-2.12-.16s-.09-.03-.11-.08l-.71-1.98-3.45-.25-.73,1.86s-.07.09-.13.08l-1.78-.13s-.08-.03-.1-.07c-.02-.03-.03-.07-.01-.11l3.81-9.66s.07-.08.13-.08l1.49.1s.09.04.11.09l3.74,10.21s.01.09-.02.12c-.02.03-.07.05-.1.05M77.61,48.5l1.78.13-.87-2.42-.91,2.29ZM90.78,53.8h-.01l-6.11-.57c-.07,0-.12-.05-.12-.12l-.06-9.98s.02-.07.05-.09c.02-.02.05-.03.09-.03l1.85.17c.07,0,.12.06.12.13l.04,7.9,4.16.38c.07,0,.12.07.12.13v1.96s0,.07-.03.09c-.02.03-.05.04-.09.04"/>
    </g>
  </g>
</svg>