<?xml version="1.0" encoding="UTF-8"?>
<svg id="Capa_1" data-name="Capa 1" xmlns="http://www.w3.org/2000/svg" viewBox="0 0 100 100">
  <defs>
    <style>
      .cls-1 {
        fill: #fff;
      }

      .cls-1, .cls-2 {
        stroke-width: 0px;
      }

      .cls-2 {
        fill: #ed1d24;
      }
    </style>
  </defs>
  <rect class="cls-2" x="8.41" y="33.26" width="83.17" height="33.48"/>
  <path class="cls-1" d="M78.8,41.06v-5.12h-14.26l-2.34,17.12-2.32-17.12h-5.14l.58,4.57c-.59-1.17-2.7-4.57-7.33-4.57-.03,0-5.15,0-5.15,0l-.02,24.95-3.75-24.95h-6.73s-3.88,25.85-3.88,25.85v-25.85s-6.44,0-6.44,0l-2.32,14.52-2.26-14.52h-6.45v28.1h5.08v-13.55l2.31,13.55h2.7l2.28-13.55v13.55h9.79l.59-4.32h3.94l.59,4.32h9.61s0,0,0,0h0s0,0,0,0h0v-9.12l1.18-.17,2.44,9.3h4.97,0s0,0,0,0h0l-3.2-10.9c1.62-1.2,3.45-4.25,2.97-7.16h0s3.02,18.08,3.02,18.08l5.91-.02,4.04-25.47v25.47h9.58v-5.05h-4.55v-6.45h4.55v-5.13h-4.55v-6.35h4.55ZM34.32,55.26l1.39-12.02,1.45,12.02h-2.84ZM49.07,49.71c-.39.19-.8.28-1.19.28v-9.04s.01,0,.02,0c.4,0,3.36.12,3.36,4.47,0,2.28-1.01,3.71-2.19,4.29M89.03,58.99v5.05h-9.35v-28.1h5.03v23.05h4.32Z"/>
</svg>