<?xml version="1.0" encoding="UTF-8"?>
<svg id="Capa_1" data-name="Capa 1" xmlns="http://www.w3.org/2000/svg" viewBox="0 0 100 100">
  <defs>
    <style>
      .cls-1 {
        fill: #000;
        fill-rule: evenodd;
        stroke-width: 0px;
      }
    </style>
  </defs>
  <path class="cls-1" d="M33.2,48.47c-.53-.5-2.2-.31-5.41-.13.63-2.68,1.09-5.02,2.27-6.84,5.5.31,12.26,1.08,20,1.06,15.24-.04,15.38-5.72,15.38-5.72-6.49,1.87-15.39,1.32-22.13.7-8.46-.78-16.92-2.72-23.91-.86-8.25,2.21-9.05,8.34-8.75,10.96,3.31-4.35,7.79-5.89,13.53-6.22.54-.03,1.12-.04,1.7-.05-1.04,1.09-1.85,2.81-2.69,5.5-.18.59-.36,1.15-.54,1.7-7.06.61-8.43,3.84-8.02,4.68.43.9,2.94-.28,6.06-.63.2-.02.39-.04.58-.06-1.22,3.16-2.57,5.41-4.74,6.73-3.31,2.01-6.77,1.08-7.47.52.27,3.68,5.81,5.69,10.52,3.11,3.75-2.05,5.92-6.95,7.11-10.63,1.04,0,2.07-.04,3.1-.1,2.84-.19,4.09-3.09,3.39-3.74M90.15,44.34c-.59-.19-1.22.14-1.4.72,0,0,0,0,0,0-.09.28-.06.57.05.82-1.07.98-2.05,1.7-2.57,1.53-.67-.22-.16-2.04.49-3.71.6.09,1.17-.27,1.35-.84.21-.65-.15-1.34-.79-1.55-.64-.2-1.32.15-1.53.79,0,0,0,0,0,0-.15.46-.01.94.31,1.26-.87,1.6-1.78,2.99-2.58,2.75h-.03c-.8-.27-.75-1.94-.54-3.77.45-.06.84-.38.99-.84.21-.65-.14-1.34-.79-1.55-.64-.21-1.32.15-1.53.79,0,0,0,0,0,.01-.18.58.08,1.2.59,1.47-.42,1.74-1.06,3.53-1.73,3.31-.52-.17-.9-1.33-1.21-2.74.55-.31.74-1,.43-1.54-.14-.25-.36-.43-.63-.52-.59-.19-1.22.14-1.4.72,0,0,0,0,0,.01-.19.6.14,1.23.74,1.42.04.01.08.02.12.03l.2,4.75,7.77,2.52,2.89-3.75c.56.27,1.22.03,1.49-.52.02-.05.04-.1.06-.15.19-.59-.13-1.23-.72-1.42"/>
  <path class="cls-1" d="M81.22,57.57c-1.44,2.56-3.5,3.87-4.6,2.92-1.1-.95-.82-3.8.62-6.36,1.44-2.56,3.5-3.87,4.6-2.91,1.1.95.82,3.8-.62,6.36M79.27,48.77s-1.85.69-3.13,1.91c-.44.41-.86.84-1.24,1.32h0c-.36.45-.63.93-.93,1.44-.41.7-.78,1.45-1.06,2.22h0s-.74,1.57-1.29,2.35c-.53.76-1.53,1.49-1.93,1.77-.47.22-.95.4-1.45.55-3.3.96-3.91-1.41-3.17-2.53.27-.4,2.09-1.81,3.34-2.84,2.41-2.01,4.07-3.28,5.2-4.43,1.2-1.22.43-1.9-.51-2.06-2.33-.4-3.4.22-4.08.8-.82.7-5.7,6.59-5.7,6.59,0,0,7.94-15.37,9.24-18.01,1.08-2.18-4.08-2.48-5.51.65-.83,1.82-6.52,15.01-7.21,16.64-1.27,2.98-1.35,3.45-1.98,3.97,0,0-.01.02-.02.02l-.05.03s0,0,0,0c-.61.51-1.47.96-2.04.95-.34,0-.55-.21-.6-.63-.06-.42,0-.96.15-1.61.1-.39.22-.82.38-1.28.16-.46.33-.93.52-1.41.19-.48.38-.94.58-1.39l.55-1.25c.16-.38.3-.71.42-.98.11-.28.18-.47.21-.59.19-.78.15-1.48-.05-1.93-.2-.44-.56-.66-1.08-.66s-1.02.15-1.47.41c-.5.29-.96.6-1.43,1.17-.4.49-.8.99-1.18,1.49-.26.34-.54.7-.83,1.08-.29.37-.57.73-.83,1.07-.37.49-.75.97-1.12,1.46h-.31c.02-.07.07-.22.15-.43.09-.22.19-.47.3-.76.26-.65.52-1.29.77-1.94.13-.32.24-.62.33-.89.1-.27.16-.48.2-.64.14-.58.15-1.04.01-1.39-.13-.35-.48-.52-1.05-.52s-1.05.16-1.46.49c-.41.33-.74.74-.96,1.22-.35.74-.69,1.49-1,2.25-.76,1.81-1.46,3.65-2.08,5.51-.13.39-.26.79-.38,1.19-.74.38-1.51.7-2.31.94-.31.09-.69.16-.91-.08-.16-.17-.16-.44-.14-.67.11-1.25.65-2.41,1.16-3.55.85-1.93,1.65-3.88,2.39-5.85.09-.25.18-.52.1-.77-.13-.39-.59-.54-1-.59-.87-.12-1.88-.03-2.45.66-.19.23-.31.5-.42.77l-2.9,6.61c-.61,1.39-1.36,2.92-2.78,3.41-.25.09-.52.13-.76.03-.3-.14-.46-.5-.46-.83,0-.34.13-.66.26-.97,1.19-2.94,2.08-4.99,3.27-7.93.06-.13.35-.82.36-1.14,0-.21-.12-.4-.31-.49-.76-.35-1.69-.14-2.38.34-1.08.76-1.68,1.99-2.21,3.17-.59,1.3-1.19,2.6-1.73,3.93-.62,1.52-1.28,2.99-1.62,4.6-.17.82-.12,1.88.47,2.47.39.38.96.5,1.5.51,2.19.07,4.26-1.09,5.85-2.6.06.8.17,1.72.84,2.16.42.28.97.29,1.47.24,1.01-.11,2-.43,2.94-.81.4-.16.79-.33,1.17-.51,0,.17.02.33.05.49.07.31.21.56.42.74.22.18.54.28.97.28.34,0,.67-.08.97-.24.3-.16.61-.45.92-.89l6.12-8.22h.25c-.31.78-.61,1.57-.89,2.36-.24.67-.45,1.35-.63,2.05-.39,1.61-.5,2.84-.31,3.68s.57,1.26,1.14,1.26,1.14-.08,1.71-.25c.57-.17,1.12-.38,1.66-.63.38-.18.75-.38,1.11-.59,0,.14-.04.4-.05.53-.02.45.05.55.26.74.21.2.43.21.87.21.34,0,.46-.03.75-.25.28-.2,1.29-1.71,2.06-2.78.13-.18.27-.36.42-.55-.28,1.33.33,3.27,2.16,3.57,1.78.29,4.68-.12,8.42-3.03.07.41.17.79.31,1.15.27.69.7,1.24,1.28,1.67.58.43,1.36.64,2.32.64.67,0,1.33-.12,1.98-.35.66-.24,1.29-.55,1.87-.95.61-.41,1.17-.88,1.68-1.41,1-1.05,1.83-2.25,2.45-3.57.54-1.22.8-2.14,1.06-3.55.12-.75.19-1.41.18-2.02,0,0-.07-1.5-.27-1.64-.2-.14-5.87-1.86-5.87-1.86"/>
</svg>