<?xml version="1.0" encoding="UTF-8"?>
<svg id="Capa_1" data-name="Capa 1" xmlns="http://www.w3.org/2000/svg" viewBox="0 0 100 100">
  <defs>
    <style>
      .cls-1 {
        fill: #000;
        stroke-width: 0px;
      }
    </style>
  </defs>
  <path class="cls-1" d="M8.65,42v11.57h1.81v-10.46h1.67s1.21,0,1.63.54c.35.46.42,1.3.42,1.86,0,.6-.04,1.54-.24,1.88-.31.52-.81.63-1.28.63h-1.1v1.03h1.59s1.43.06,2.05-.57c.75-.77.95-1.8.95-3.18,0-1.25-.46-2.52-1.39-2.95-.77-.35-2.16-.35-2.16-.35h-3.94ZM17.56,53.57h1.81v-11.57h-1.81v11.57ZM28.97,44.7l3.3,8.66-1.9,4.64h1.5l5.46-13.3h-1.67l-2.38,6.48-2.21-6.48h-2.1ZM38.69,53.5v-1.09s1.91.07,2.31.07c.88,0,1.32-.19,1.65-.54.2-.21.37-1.16.37-1.49s-.06-1.06-.2-1.36c-.14-.29-.44-.56-.9-.6-.33-.03-.84-.09-1.43-.12-.83-.04-1.38-.47-1.65-.79-.26-.31-.62-.78-.62-2.23s.37-2.25.75-2.63c.37-.38.92-.54,1.34-.62.48-.08,1.28-.09,1.28-.09l2.53.07v1.09s-1.84-.07-2.24-.07c-.88,0-1.15.19-1.48.54-.19.21-.35.79-.35,1.13s.04,1.01.17,1.31c.13.29.44.56.9.6.33.03.84.09,1.43.12.84.04,1.39.47,1.65.79.27.31.62.97.62,2.42s-.38,2.48-.75,2.85c-.38.38-.92.54-1.34.62-.49.08-1.28.09-1.28.09l-2.77-.07ZM48.54,43.11h-1.8v8.49s.04.78.09,1.05c.04.27.44.92,1.48.92l1.87-.04v-1.09s-.51.04-.81.04-.69-.02-.75-.54c-.07-.52-.07-1.15-.07-1.15v-5h2.04v-1.09h-2.04v-1.59M65.97,53.57h1.8v-8.87h-1.8v8.87ZM65.97,43.61h1.8v-1.61h-1.8v1.61ZM73.48,44.62c1.23,0,2.18.27,2.69.69.52.41,1.15,1.29,1.15,3.82s-.63,3.41-1.15,3.82c-.51.41-1.46.69-2.69.69s-2.18-.28-2.7-.69c-.52-.42-1.15-1.29-1.15-3.82s.63-3.41,1.15-3.82c.52-.41,1.46-.69,2.7-.69ZM72.24,46.32c-.25.31-.55.95-.55,2.81s.3,2.5.55,2.81c.25.3.7.51,1.29.51s1.05-.2,1.3-.51c.25-.3.55-.95.55-2.81s-.3-2.5-.55-2.81c-.25-.3-.7-.51-1.3-.51s-1.05.2-1.29.51M81.06,45.94l1.77-.07c.46,0,1.01.12,1.27.46.25.32.4.69.4,1.3v5.93h1.81v-6.08c0-1.15-.35-1.82-.89-2.24-.76-.6-2.11-.54-2.11-.54l-4.04.07v8.79h1.79v-7.61ZM62.37,43.11h-1.81v8.49s.04.78.09,1.05c.05.27.44.92,1.48.92l1.87-.04v-1.09s-.51.04-.81.04-.68-.02-.75-.54c-.06-.52-.06-1.15-.06-1.15v-5h2.03v-1.09h-2.03v-1.59ZM26.21,47.63c0-.61-.15-.98-.4-1.3-.26-.34-.81-.46-1.27-.46l-2.38.07v-1.17l2.87-.07s1.36-.06,2.11.54c.53.42.88,1.09.88,2.24v5.99l-3.46.07s-1.57,0-2.36-.31c-.77-.31-1.19-1.17-1.19-2.36s.35-1.82.88-2.24c.76-.6,2.11-.54,2.11-.54h1.11v1.02h-.62c-.46,0-.94.09-1.21.42-.25.31-.38.58-.38,1.19,0,.8.15,1.15.53,1.42.33.24.92.29,1.58.29l1.19-.07v-4.74ZM56.65,47.63c0-.61-.15-.98-.4-1.3-.27-.34-.81-.46-1.27-.46l-2.38.07v-1.17l2.86-.07s1.36-.06,2.11.54c.53.42.88,1.09.88,2.24v5.99l-3.46.07s-1.57,0-2.36-.31c-.77-.31-1.19-1.17-1.19-2.36s.36-1.82.88-2.24c.76-.6,2.12-.54,2.12-.54h1.1v1.02h-.62c-.46,0-.94.09-1.2.42-.25.31-.38.58-.38,1.19,0,.8.16,1.15.53,1.42.33.24.93.29,1.59.29l1.19-.07v-4.74ZM89.58,53.64c.97,0,1.76-.78,1.76-1.76h0c0-.47-.18-.92-.52-1.25-.33-.33-.78-.52-1.25-.51-.97,0-1.76.79-1.76,1.76,0,.47.18.91.52,1.25.33.33.78.52,1.24.51ZM88.12,51.88c0-.39.15-.76.43-1.04.27-.28.65-.43,1.04-.43.39,0,.76.15,1.04.43.28.27.43.65.43,1.04,0,.81-.66,1.47-1.47,1.47-.39,0-.76-.15-1.04-.43-.28-.27-.43-.65-.43-1.04"/>
  <path class="cls-1" d="M90.45,52.7s-.05-.04-.06-.09c-.01-.05-.02-.1-.02-.15v-.25c-.01-.12-.04-.2-.08-.26-.03-.04-.07-.07-.12-.1.06-.04.11-.08.15-.14.05-.08.08-.18.08-.3,0-.23-.1-.4-.29-.48-.1-.05-.22-.07-.37-.07h-.91v1.96h.34v-.8h.54c.1,0,.17.01.21.03.07.03.11.1.11.21v.31c.02.08.02.12.03.15,0,.03.01.05.03.07v.02h.39v-.12h-.03s0-.01,0-.01ZM90.06,51.43c0,.11-.03.18-.08.22-.06.04-.15.06-.26.06h-.55v-.55h.58c.08,0,.14.01.19.03.08.04.12.12.12.23"/>
</svg>