<?xml version="1.0" encoding="UTF-8"?>
<svg id="Capa_1" data-name="Capa 1" xmlns="http://www.w3.org/2000/svg" viewBox="0 0 100 100">
  <defs>
    <style>
      .cls-1 {
        fill: #000;
      }

      .cls-1, .cls-2 {
        stroke-width: 0px;
      }

      .cls-2 {
        fill: #fff;
      }
    </style>
  </defs>
  <path class="cls-2" d="M25.1,51.13v-.06h-.06l-.29-.06.35.11Z"/>
  <path class="cls-1" d="M42,60.16c.35,0,.66.15.86.46l.52-.31c-.31-.51-.77-.75-1.38-.75-.42,0-.77.09-1.03.35-.35.26-.52.57-.52.98,0,.55.42.96,1.18,1.32l.37.15c.55.26.86.57.86.97l-.26.72-.72.29-.72-.24-.26-.72-.66.15c.06.42.2.77.51,1.03.31.24.66.4,1.07.4.46,0,.86-.17,1.23-.46l.46-1.18c0-.66-.4-1.18-1.29-1.53l-.4-.17c-.46-.2-.72-.46-.72-.75,0-.2.11-.37.31-.51l.57-.2ZM45.67,60.25h1.23v-.61h-3.16v.61h1.27v4.6h.66v-4.6ZM51.13,62.98v-3.33h-.66v3.07c0,1.07-.42,1.62-1.27,1.62s-1.23-.55-1.23-1.62v-3.07h-.66v3.33c0,.55.15,1.07.51,1.43.35.35.81.55,1.38.55.61,0,1.07-.2,1.42-.55.35-.37.52-.88.52-1.43M53.08,59.65h-1.12v5.21h1.07l-.15-.61h-.26v-3.99h.26c1.62,0,2.45.68,2.45,2.01s-.83,1.99-2.45,1.99l.15.61c.86,0,1.58-.2,2.08-.66.57-.46.88-1.12.88-1.99s-.31-1.49-.88-1.95c-.55-.4-1.21-.61-2.02-.61M57.26,59.65h-.66v5.21h.66v-5.21ZM63.33,62.26c0-.77-.26-1.38-.81-1.89-.57-.57-1.18-.81-1.93-.81s-1.38.24-1.89.81l.4.4c.4-.4.92-.61,1.49-.61.61,0,1.12.2,1.53.61.36.41.55.94.55,1.49,0,.55-.21,1.08-.61,1.47-.39.39-.92.61-1.47.61-.57,0-1.03-.2-1.43-.61s-.61-.92-.61-1.47.2-1.09.55-1.49l-.4-.4c-.57.51-.83,1.12-.83,1.89s.26,1.42.83,1.93c.51.52,1.12.77,1.89.77s1.42-.26,1.93-.77c.55-.51.81-1.18.81-1.93M69.97,60.97l.46-.41c-.57-.66-1.23-1.01-2.1-1.01-.75,0-1.38.24-1.93.81-.51.51-.77,1.12-.77,1.89s.26,1.38.77,1.88c.51.57,1.12.83,1.84.83s1.32-.26,1.78-.72c.46-.46.72-1.07.72-1.78v-.2h-2.1v.55h1.38l-.57,1.14-1.18.46c-.55,0-1.01-.22-1.42-.68s-.63-.92-.63-1.47.22-1.09.63-1.49c.4-.46.92-.66,1.47-.66.66,0,1.23.31,1.64.87M71.29,59.65v5.21h.66v-2.5h2.5v2.5h.61v-5.21h-.61v2.1h-2.5v-2.1h-.66ZM76.65,64.85v-5.21h-.66v5.21h.66ZM78.23,59.65h-.66v5.21h1.23l1.27-.29c.37-.26.57-.68.57-1.14l-.31-.86c-.18-.24-.45-.41-.75-.46v-.04c.35-.17.55-.52.55-.98,0-.97-.61-1.43-1.9-1.43v.57h.17c.75,0,1.12.29,1.12.86s-.37.86-1.12.86h-.17v.52h.42c.86,0,1.32.29,1.32.92s-.4.92-1.23.92h-.51v-4.08M81.36,64.85h2.24v-.61h-1.64v-4.6h-.61v5.21ZM84.61,64.85v-5.21h-.66v5.21h.66ZM40.94,51.02v.83h3.79c-.37,1.01-.98,1.93-1.8,2.74-.75.77-1.53,1.29-2.39,1.58l.52.68c1.01-.42,1.99-1.12,2.91-2.21l2.24,2.24.66-.72-2.45-2.13c.66-.92,1.18-1.93,1.43-3.02h-4.91ZM49.42,52.31h2.56c-.17.75-.46,1.38-.88,1.93l-1.67-1.07-.57.55,1.69,1.12c-.92.77-1.95,1.29-3.11,1.49l.46.72c2.91-.66,4.64-2.5,5.1-5.46h-3.11l.4-.77-.86-.2c-.51,1.32-1.32,2.3-2.45,2.85l.55.63,1.9-1.78ZM59.27,52.34l-.83-.35c-.46,1.38-1.01,2.39-1.77,2.96-.66.55-1.75.86-3.11.97l.2.86c1.58-.17,2.74-.63,3.62-1.32.7-.66,1.32-1.69,1.88-3.13M59.58,51.42l-.35-1.07-.63.11.4,1.12.57-.17ZM53.45,52.55l-.31.77,2.04.81.31-.81-2.04-.77ZM54.06,50.93l-.35.75c.7.2,1.38.46,2.04.77l.35-.77-2.04-.75ZM57.59,50.56l.35,1.18.61-.15-.35-1.18-.61.15ZM67.38,50.93l-.35.75c.66.17,1.32.42,1.99.77l.41-.77-2.04-.75ZM66.77,52.55l-.35.77,2.04.81.35-.81c-.4-.26-1.07-.52-2.04-.77M72.55,52.34l-.77-.35c-.46,1.38-1.07,2.39-1.78,2.96-.66.55-1.73.86-3.11.97l.2.86c1.58-.17,2.76-.63,3.57-1.32.77-.66,1.38-1.69,1.89-3.13M72.29,51.59l.61-.17-.35-1.07-.63.11.37,1.12ZM71.26,51.74l.63-.15-.37-1.18-.61.15.35,1.18ZM79.74,51.22l-.31-1.01-.61.15.31,1.03.61-.17ZM78.47,51.33l.24-.06-.29-1.01-.66.15.29.92h-4.64v.81h4.6c-.17,1.38-.72,2.45-1.69,3.13l-2.3.81.46.81c2.81-.61,4.29-2.45,4.43-5.56h-.44M85,50.82h-.88v3.11c0,.88-.29,1.49-.9,1.84l-2.36.46.26.83,1.73-.31,1.07-.52c.72-.55,1.09-1.42,1.09-2.65v-2.76M81.32,50.93h-.83v3.97h.83v-3.97ZM59.89,51.85v.81h3.11c-.57,1.03-1.58,2.04-3.07,3.07l.46.7c1.03-.66,1.84-1.42,2.47-2.19l.64-.92v3.62h.83v-4.29h1.64v-.81h-1.69v-1.18h-.77v1.18h-3.61ZM92.52,58.27v-.09h-59.72v.09h59.72ZM33.47,39.43v-.09h-.66l-.15.09v.06l.35-.06.37.06.09-.06ZM25.21,46.13l-.06-.06v-.15l-.05-.17v-.09l-.09-.2-.06-.17-.06-.04v-.11l-.06-.06-.09-.2-.06-.04-.09-.17-.11-.09-.81-.26-.68.06-.35.11-.26.18-.06.11-.04.06-.06.11-.05.04v.06l-.06.04v.06l-.04.06v.15l-.06.11v.15l-.06.11v.09h-.06v.26l-.06.15-.09.11v.06h.06l.09.15v.46h.06v.06l.06.09v.06l.09.15.11-.09v-.06l-.05-.09v-.2l-.06-.06v-.72l.06-.06v-.09h.05v-.42l.06-.04v-.17l.04-.06v-.15h.06l.11-.18.09-.11.83-.31.5.06.31.15.2.22h.06v.04l.15.29.06.06v.07l.06.09.06.04.04.17v.04l.06.06v.17l.06.04v.2l.06.22v.24l-.06.11-.11.15-.09.06-.26.2-.26.15-.61.26-.31.06-.55-.09-.17-.06h-.04l-.11-.11-.15-.09-.06-.06-.11.09.46.37.31.09.4.06.77-.2.55-.31.37-.29.09-.15.05-.06h.31l.04-.11-.15-.09-.09-.11-.06-.09v-.31ZM19.08,45.52v.04l.09.06.06-.09v-.06l.06-.11v-.09l.05-.11v-.09l.06-.17v-.04l-.06-.06-.05.06v.04h-.06v.17h-.06v.2h-.04v.04l-.06.22ZM19.6,45.3h-.17l-.04.13.04.09h.11l.05-.09v-.13ZM19.84,45.46h-.15v.06l.11.09.04-.06v-.09ZM20.15,45.56h-.09l-.06.11.06.05.09.04.05-.04v-.11l-.05-.06Z"/>
  <path class="cls-1" d="M22.39,46.02v.52l.06.05.15.2h.26l.11-.06.09-.15v-.66l-.15.15.06.06-.06.09-.06-.04v-.11h.06l.15-.15-.06-.17-.04-.09-.11-.11-.2.06-.2.2v.11l-.06.09ZM17.3,47.45v-.05l-.05-.09-.15-.11-.31.06-.06.09-.05.06v.11l-.04.06.2.09.4-.09.05-.11ZM22.85,49.44l-.06.17v.04l.17.17.2-.17-.06-.04,1.12.04v.06h-.81l-.26-.06-.2.17.66.09,4.58.31.31.09h.31l1.01.2h.26l.06-.04-.11-.17-.75-.15-.72-.06-.46-.09-5.26-.57ZM21.84,50.47h-.66l.04.04.26.17,1.09.09,1.07.26v-.09l-.17-.17-.5-.04-.46-.17-.66-.09Z"/>
  <path class="cls-1" d="M30.16,52.4v-.09l-.11-.11-.26-.15-.04.2v.06h-.52l-.83-.26-.29-.06-2.61-.77-.24-.09.4.06.66.2h.24l2.93.75.26.11.04-.2-1.62-.4-.31-.11-5.06-1.18-.15-.05-.46-.09h-.2l-.35-.11-.52.06-.06.06.06.09.15-.09.26.09.66.11.37.15,1.16.17.06.04.4.11-.15.05-.11.15h.06l4.54,1.23,1.27.2.37-.11ZM16.89,51.48v-.09l-.11-.11-.26.06-.06.06v.04l.42.06ZM22.56,52.11v.2l.2.15.15-.15-.15-.11.04-.06.63.2h.09l2.41,1.03.15.06.72.4v.06h-.06l-3.22-1.34-.2-.04-.4-.2-.15.15,2.8,1.07.06.06.31.15.26.06.96.4.17.06.29.06.06-.06-.2-.15-.2-.2-1.07-.66-.31-.11-.2-.11-2.61-.96-.4-.06-.09.11ZM20.66,55.42l-.06-.06-.15-.06h-.11l.06.2.31.17.15.09.15.06.06.11v.04l.35.17.22.15h.04l.11.15.09.2v.07l.11.04.15.15.17.11.09.2.06.06h.06l.15.2.46.46v.06l.06.04v.07l.09.09v.04l.11.11v.06l.06.06.04.15.06.06.06.26v.09l.06.2v.11l.06.09.09.11.06.09v.06l.15.15v.06l.06.06v.15l.06.11.06.15v.2l.46.51.04.26v.92l.06.09v.11l.06.06v.29l-.06.06v.11l.2.15v.11l-.06.15v.2l.06.06.11-.2v-.06l.04-.06v-.15l-.09-.11.06-.29h-.06v-.31l-.06-.15v-.37l-.06-.35v-.06l.06-.11v-.35l-.51-.51s-.09-.09-.04-.2l-.06-.26v-.04l-.06-.11v-.11l-.06-.04-.04-.11-.17-.15v-.06l-.06-.06-.04-.09-.06-.2v-.06l-.06-.11v-.26l-.06-.09v-.04h-.04v-.11l-.06-.06-.11-.17-.06-.09-.09-.11v-.04l-.06-.06v-.05l-.15-.11v-.04l-.4-.4-.06-.11-.26-.26-.11-.15v-.06l-.04-.04h-.06l-.11-.11-.09-.17v-.09l-.11-.11-.06-.09-.09-.06-.46-.15-.15-.11h.04v-.09l-.15-.11-.4-.2ZM16.07,59.5c-.15-.06-.35,0-.61.2l-.11.09-.29.11-.26.26-.51.35-.06.11-.26.26-.04.09-.06.06v.11l.09.09.83-.06.29-.04h.17l.15.09.15.15.2.17.11.15.15.15.06.11.11.11.04.09v.06l.11.09.06.17.06.06.29.15.11-.11h.06v-.75h.04v-.2l.06-.06v-.11l-.06-.09v-.2l-.04-.17v-.15h-.06v-.15l-.06-.06-.11.06.06.29v.31l.06.15v.26h-.06v.57l-.06.09-.09.06-.15-.15v-.06l-.06-.06v-.09l-.11-.11-.15-.2-.06-.06-.06-.09v-.06l-.09-.11-.11-.06-.06-.04-.04-.11-.26-.15-.46-.2-.31.09h-.35v-.15l.66-.46.15-.2.83-.46.15.06.06.04.09.06.06.11.06.06.06.09.04.06v.09h.06v.11l.06.06v.09h.06v.11l.04.06.11-.06v-.15l-.06-.11-.06-.15v-.06l-.04-.15v-.06l-.06-.06v-.06l-.06-.06-.26-.2-.2-.09ZM21.53,63.79v-.06l-.06-.06v-.04l-.46-.46-.2-.06-.26.06-.46.24-.35.37v.09l-.26.26-.2.17-.06.11-.06.04-.09.15v.11l.06.06.55.09h.61v-.15l-.35-.06h-.51l-.04-.09v-.11l.04-.04.11-.07.06-.04.29-.26.06-.06.2-.26.11-.06c.15-.15.29-.26.46-.29h.26l.24.26.11.15v.09h.06v.11l.04.11v.09l.06.52v.09h.06v.31l.06.15v.17l-.06.04h-.2l-.31-.29v-.06h-.04l-.17-.15-.06-.11h-.04l-.42-.15v.2h.06l.26.09.15.17.11.15h.06l.09.15.11.11.35.11.26-.06.05-.11v-.15l-.05-.26v-.26l-.06-.26v-.26l-.04-.24v-.11l-.06-.04v-.11l-.06-.06ZM39.91,43.48l.55.35.11.15.2.17-.2.2v.09l.31.11.09.09v.06l.11.11.04.09.11.07.06.09.09.15.06.06.11.17v.18h-.06l-.06.11v.04l.11.13.09.13v.06l.26.26.11.15v.06l.09.2v.2l.06.06.06.11v.04h.04v.26l.11.2v.06l.06.11.06.04v.11l.04.11.11.15v.06l.06.09.04.06v.15h.06v.11l.06.15v.11h.05v.09l.06.11.04.06v.04l.06.06.06.15.05.11.04.06.06.09v.06l.06.15v.06l.06.2.06.11v.09l.04.17v.09h.06v.17l.11.2v.26h.04v.09h.2v-.09h-.04v-.17h-.06v-.09l-.05-.05v-.26l-.06-.11-.04-.04v-.17l-.06-.2v-.09l-.06-.11v-.06l-.06-.04v-.11l-.04-.06-.06-.15v-.05h-.06v-.09l-.06-.06v-.11l-.06-.04-.09-.31v-.06l-.06-.06-.06-.09v-.05l-.15-.31v-.09l-.06-.06-.06-.15v-.06l-.04-.06-.06-.09v-.11l-.06-.06-.09-.2v-.09h-.06v-.11l-.06-.15v-.11l-.06-.04v-.06l-.06-.11v-.06l-.04-.09v-.11l-.06-.04-.06-.11-.09-.15-.06-.11-.15-.15.04-.11v-.15l-.04-.15-.06-.09h-.06v-.13h-.05l-.06-.09-.15-.2-.06-.11-.2-.29-.06-.06v-.04l-.09-.17-.06-.06v-.11l-.06-.04-.09-.17-.05-.09-.26-.26-.15-.2h-.06l-.2-.17-.26.11.06.11ZM22.85,36.73l-.09-.09v-.06l-.06-.06-.11-.06-.09.11.09.11.11.29v.2h-.06v.06l-.06.05-.09.15-.26-.09-.05-.11-.09-.09v-.06l-.06-.11v-.05h.06v-.15l.04-.06.06-.09.31-.06.09-.11-.2-.04h-.2l-.15.09-.06.06-.11.15v.42l.06.15.06.06.06.09.15.06.4.05.06-.11.15-.15.06-.15v-.42Z"/>
  <path class="cls-1" d="M37.29,28.52v.35l.06.15.06.06.06.11v.2l.04.15v.15l.06.11v.46h.06v.31l.06.04v.11l.06.06v.26h.04v.7l.06.06v.11l.06.15v.46l.06.11v.15l.04.06-.04.04.04.11v.4h.06v.66l.06.4v.83l-.06.09v1.03l-.06.06.06.09v.2h-.06v.37l-.04.09v.11l-.06.09v.17l-.66.26c-.17.04-.31.09-.41.15l-.51.09-.46.42v.4l-.06.06v.09l-.06.37-.09.15-.06.15-.06.05-.06.11v.09l-.04.06v.15l.09.06.17-.11.04-.04v-.11l.26.06.51.26c.46.26.77.4.86.4l.11.06.46.15.29.15.31.22v.09h-.26l-.09.11.75.4.61.46v.06l-.04.04-.42-.09-.15.09.2.11c.26.06.51.17.66.31l.51.5.2.17.15.2h.06l-.06-.17-.46-.46-.04-.24-.11-.06-.09-.2-.26-.37-.66-.55-.06-.06.09-.11v-.09l-.29-.2-.17-.17-.35-.24-1.43-.51-.5-.31v-.09l.35.04h.26v-.09l-.06-.06-.61-.11-.26-.2.06-.04.46.09h.15l.46.11h.15l.11-.06-.06-.11-.97-.2-.29-.09.06-.06.09-.06.57.06.86.26.35.15.11-.06v-.09l-.06-.06-.31-.2-.46-.11-1.16-.15-.06-.06.06-.04h.24l.46-.06h.77v-.06l-.46-.11h-.92l-.06-.04.31-.17.55-.2.52-.09.37-.2v-.06l.2-.31v-.2l.06-.06v-1.47l.04-.11-.04-.09.04-.26v-1.49h-.04v-.55l-.06-.4v-.26l-.06-.26v-.26h-.06v-.2l-.06-.11v-.15l-.04-.15v-.83l-.06-.04v-.31l-.06-.11v-.15l-.06-.06v-.35l-.04-.06v-.2l-.06-.06v-.06l-.06-.09v-.05l-.26-.72-.15-.04-.37.09-.09.11-.06.09-.06.06-.09.15-.2.46-.11.11-.09.2-.06.06-.31.4-.06.09-.15.17v.09l-.11.11-.35.66-.06.15-.06.06-.04.11-.06.15-.11.09-.04.11-.06.06-.11.2v.06l-.04.04-.11.31-.11.06v.06l-.09.2-.06.04-.06.11v.06l-.04.15v.06l-.06.06v.09l-.06.06v.15l-.06.11v.15l-.2.4v.06l-.06.06-.2.31-.06.15-.04.06-.06.2-.15.2-.06.2-.05.05-.06.09-.09.17-.06.04v.06l-.06.11v.09l.06.37.35.46.17.15v.06h.04l.06.15.17.26v.26l-.17-.05-.2-.2-.81-.46-.26.26.92.66.26.31.09.09.11.06.06-.11-.31-.29-.4-.31-.26-.26v-.06l-.06-.04.26.15.11.11.2.15.04.06.26.15.11.09.06.11v.15l-.06.11.06.06v.15h-.06l-.17-.06-.9-.66-.26.06.15.15.51.31.06.09-.11-.04-1.32-.2-.31-.11-.29-.06-.06-.06h-.86l-.22-.09v-.15l.17-.17.51-.15.24-.06.06-.09-.15-.06h-.15l-.17.06v.04l-.09.06-.31.06v-.06h.06l.09-.09h.26l.17-.06.4-.2v-.06h-.17l-.24.11-.51.04-.17-.09-.09.2h-.06l.06.09v.22l-.06.09-.06.26-.2.09-.97.11-.04-.2v-.77l.04-.04v-.26l.06-.11-.06-.06v-.15l-.04-.06-.06-.09.06-.11-.37-.2-.2-.15-.04-.06v-.06l-.06-.09v-.37l.06-.15v-.11l.04-.04.11-.22v-.04l.04-.11v-.06l.06-.04.06-.11v-.15l.06-.06v-.15l.09-.37v-.15l.06-.15.06-.11v-.06l.09-.15v-.11l.06-.04v-.11l.06-.06v-.06l.06-.09.06-.06v-.09l.04-.06v-.11l.06-.05v-.09l.06-.06.2-.4.11-.31.04-.04.06-.11.06-.06.15-.29.2-.22.26-.35.06-.09.11-.17.4-.4.06.06.04.09v.11l.06.06v.2l.06.15v.06l.06.15v.46l.04.11v.29l.06.11v.72l.06.09v.06l.06.06v.26l.06.09v.66l.04.11v.61l-.04.06v.55l.04.06v.26l.06.11v.09l.06.06v.4l-.15.31-.92.46-.17.15-.06.11.06.04v.11h.11l.46-.11h.2l.26-.04-.17-.11h-.35v-.06l.31-.15.46-.31.04-.09.11-.57v-.15l-.06-.06v-.61l-.06-.06v-.98l-.04-.09v-.46h.04l-.04-.06v-.66l-.06-.11v-.35l-.06-.09v-.06l-.06-.17v-.2l-.04-.09v-.17l-.06-.09v-.52l-.06-.15v-.15l-.06-.11v-.2l-.09-.2v-.06l-.06-.11v-.04l-.06-.11h-.26l-.35.37h-.05v.09l-.15.15-.17.31-.29.31-.17.29-.2.26-.06.06v.06l-.04.09-.06.2-.06.06v.06l-.09.15v.17l-.11.09v.06l-.06.09-.06.05v.11l-.04.09v.11l-.11.15v.06l-.06.11v.04l-.04.11-.06.06v.09l-.06.17-.11.09v.11l-.04.09v.06l-.06.06v.26l-.06.09v.15l-.04.06v.2l-.06.17-.11.2v.06l-.11.2v.09l-.04.16v.15l.04.09.06.06v.11l.11.09.61.4-.09.26-.72-.35-.42-.11s-.09,0-.15.06l.2.15c.17,0,.31.06.4.17l-.15.09-.09.17h.35l.31.04.26.11-.06.11-.4.04-.22.06v.06h.28l.15-.06.2.06v.15l-.06.11-.52.06-.06.09.06.05.22-.05.18-.09.17.04v.17l-.17.09.06.15v.11l-.15.06-.06-.11.2-.06-.06-.15-.29.15c-.26.06-.35.11-.35.17l-.31.15-.06.06-.09-.06.04-.15v-.17l-.04-.09-.57-.15v-.17l-.2-.4-.4-.52-.26-.15-.15-.31-.26-.26v-.09l-.06-.06-.06-.15-.29-.4-.31-.26-.66-.4v-.11l-.06-.11-.06-.04v-.51l-.06-.06v-.06l-.04-.09v-.06l-.05-.15h-.06v-.11l-.09-.15-.06-.11v-.04l-.31-.68v-.09l-.06-.06-.04-.15-.06-.06h-.15l-.11.06v.09l-.06.05-.06.11v.15l-.04.11v.2l-.06.15v.4l-.11.11-.09-.17-.2-.4v-.06l-.06-.09v-.06l-.05-.09-.15-.17h-.11l-.06.11v.09l-.04.11v.15l-.06.11v.46l-.05.15v.31l.06.06h-.06v.29h.06v.31l.06.06v.09l.04.11v1.01l-.29.61v.26l-.06.06v.31l.11-.06.04-.11.05-.04.06-.11.06.06v.06l-.11.2.06.09.06.06h.04v.06h-.04l-.06.09-.11.06-.04-.06v-.35l-.11.06h-.05l.06.15v.26l.06.11v.29l.06.15v.42h-.06v.29l-.06.06v.31l.06.09v.17l.06.09.04.26.06.11.11.29.09.11.11.2-.2.2-.11.15h-.15l-.15.11-.06-.11v-.15l-.11-.06-.09.17-.11.2v.04l-.31.31-.09.31-.11.09-.09.17-.11.2-.06.04v.11l-.04.06-.06.09-.11.17v.04l-.04.07-.17.29-.09.09-.11.17v.04l-.09.22-.06.04-.06.11-.06.06-.04.15-.06.11v.11l-.06.09v.09l-.06.11v.06l-.06.11v.13l-.04.11v.11l-.06.2v.09l-.06.11v.17l-.06.04-.2.29-.15.13-1.23.33-.61.37v.09l-.06.11-.06.06v.46l.06.09v.17l-.09.15-.17.46v.06l-.15.2h-.31l-.04-.06-.17-.06h-.09l-.17.06.06.11.06.04.4.11.26.09.06.11v.4l-.06.06-.57.09-1.07.42v.09l.06.11,1.53-.51.11.11-.06.09v.11l-.06.04v.06l-.06.11v.09l-.04.06v.11l-.26.15-.17.15.42-.06.04.06.06.11.06.15v.06l.06.09v.06l.06.17v.04l.04.11v.06l.06.04.06.11-.06.11-.46.09-.26.11-.09.09v.26l.04.06-.04.06-.51.75-.26.17-.26.24-.15.11v.15l-.06.06-.26.2-.09.15-.72.77-.46.37-.26.15-.26.09.11.22-.52.5-.11.17v.04l.06.17-.06.04-.2.26-.09.11-.11.2v.26l-.15.17-.06.13-.09.11v.11l-.06.11v.09l-.37.37v.09l-.29.4v.15l-.06.06v.11l-.06.2v.35l-.15.2-.06.06-.06.09-.04.17-.06.06-.06.15h.06v.09l.06.11v.15l-.06.11v.2l-.06.09v.06l-.06.11v.09l.06.06.11-.09v-.22l.04-.04v-.11l.06-.09v-.31l.06-.11.06-.04.09-.17v-.04l-.06-.11.06-.06.2-.29.2-.22-.09-.2h.06l.81-.35h.31l.35.26.11.09v.11l.04.06.26.2h.2l.17-.2v-.11l-.17.06-.04.06-.17-.17v-.04l-.09-.17-.11-.09-.09-.2-.06-.06-.37-.11-.5.11-.2.15-.37.17-.09-.06v-.17l.04-.09h.06v-.11l.06-.15.15-.15.06-.09.11-.11.15-.06.2-.2.2-.17c.15-.09.2-.15.26-.15l.57-.31.09.11v.15l.06.2v.2l-.06.26.06.07v.18h.06v.63l.04.2v.15l.17-.06.04-.06.06-.09v-.46l-.06-.11v-.26h-.04v-1.01l-.06-.04v-.11l-.11-.16-.2-.04-.2.09-.06.06-.75.4.09-.31v-.09l.06-.11.4-.29v-.11h-.15l-.11.06.06-.11.26-.26.46-.35.06-.2h-.2v-.06l.46-.4.04-.15.31-.31.66-.46.37-.35.26-.22.4-.24,1.27-.51.66-.15.06.15.09.06.72.2c.26-.11.4-.11.52,0l.4.2.31.09.26.2.26.17.4.35.26.17.26.09.46.31.15-.06-.11-.15-.29-.2-.46-.22-1.12-.86-.92-.29h-.31c-.09-.11-.2-.17-.31-.17l-.29-.09-.51-.06-.92.15c-.26.11-.46.2-.57.26l-.24.17-.26.04v-.09l.46-.4h.04l.22-.17.04-.09v-.06l.17-.15.15-.26.26-.2.06-.11.09-.15.06-.11.46-.15.06-.06-.11-.15v-.11l.06-.09-.06-.26-.06-.06-.2-.4v-.26l-.04-.15v-.26l.04-.11v-.06l.06-.09v-.11l.06-.04v-.26l.06-.2v-.31l-.06-.11v-.09l.06-.11v-.15l.04-.11v-.04l.06-.11.06-.06v-.09l.06-.11.2-.2-.11-.31-.04-.35.2-.35.2-.06.29.15c.17,0,.31.11.46.26v.06l.17.29v.22l.04.09.17-.09v-.37l-.11-.2-.46-.41-.29-.15.15-.11.15-.06h.11v.11h.2l.26-.06.06.06v.09h.61l.06.17-.11.09.37.17v.04l-.06.06v.06c.06.06.09.09.26.09l.04-.09-.15-.15v-.11h.06l-.06-.06-.2-.29-.11-.11-.2-.06-.15-.14v-.15l.35-.31.11.06h.11l.04-.06v-.24h.06v-.28l.06-.09v-.06l.06-.11v-.2l-.17.17v.11l-.04.04-.06.26v.09l-.06-.06.06-.09v-.2l.06-.26v-.15l.04-.17v-.04l.06-.11v-.11l.06-.04v-.09l.09-.22.06-.06.31-.61.06-.04.09-.22.06-.15.09-.17v-.09h.06l.11-.26.15-.26.05-.06.09-.2.11-.15.11-.11v.17l.04.09.11-.15.09-.26.06-.06v-.09h.17l.04.09.17-.09.29-.31v-.06l.2-.2.42.06.09-.06-.31-.09-.09-.2-.11-.11-.2-.4-.06-.06v-.11l-.04-.04v-.11l-.06-.09v-1.58h-.06v-.17l.06-.04.15-.06.11-.11v-.29h.06l-.06-.17v-.2l-.11-.09-.15-.06v-.17l.26-.46.09-.09v-.06l.06-.06-.06-.09v-.06l-.04-.06v-.86l-.06-.06v-.15l-.06-.06v-.09l-.06-.17v-.75l.06-.06v-.26l.06-.09v-.17l.09.11v.06l.06.04v.06l.05.06v.06l.06.04v.06l.04.06.11.31.06.09.06.06v.72h-.06v.92h.06l.09-.11h.06v-.86l.06-.15v-.31l.04-.35v-.2l.06-.06v-.11h.06v-.61h.06v-.11l.06-.04v-.11h.04l.11.11.06.09v.06l.04.06.06.09v.06l.06.06v.06l.06.15v.06h.04v.09l.06.11v.06h.06v.09l.11.11v.09h.04v.37l.06.2v.09l.06.17v.04l.09.06.11.15.72.42.31.29v.11l.04.09h.06v.11l.06.06v.04l.15.17.06.09.06.06.04.11.06.04v.06l.11.17.15.15.15.09.11.06.06.11.09.09.11.26h.06v.11l.04.06.06.15v.06l.09.09v.06l.37.15.06.17-.06.04-.06.11-1.73.66c-.15.06-.31.11-.35.15l-1.18.51-.51.35-.09.11h-.06l-.06.11-.11.09-.04.11-.11.09-.09.06v.06l.04.09.2-.09.42-.4.66-.51.04.06.26-.06,1.12-.57,3.07-.86,1.58-.09,2.45.24h.15l.2.06.11.11-.06.09.2.17-.26.09v.11h.51l.31.06h.29l-.04-.22v-.04l.09-.06v.09h-.09l.04.22.11.09.15.06.06-.11v-.26l.06-.09v-.2l.06-.11v-.51l.04-.15v-.35l-.09-.2-.06-.06-.09-.2-.06-.2-.11-.17-.2-.15-.15-.26v-.09l-.06-.12.06-.06v-.06l.06-.09.04-.06v-.09l.26-.37v-.09l.06-.11.06-.06.09-.15.06-.15v-.17l.11-.2.04-.15.06-.06.17-.29v-.22l.09-.2v-.04l.06-.11v-.11l.06-.04.04-.11v-.09l.06-.11v-.06l.11-.2.09-.09v-.11l.17-.2.04-.11v-.09l.11-.11.15-.35.17-.15.04-.11v-.06l.06-.06.06-.09.06-.15.09-.22.06-.04.4-.63.16-.29.15-.17.09-.2.11-.15.06-.11.06-.04.15-.31.09-.11.17-.24.15-.06.15.06Z"/>
  <path class="cls-1" d="M22.56,37.04l-.06-.2-.2-.06-.06.06-.05.09.05.17.06.09h.04l.17-.04h.06v-.11Z"/>
</svg>