<?xml version="1.0" encoding="UTF-8"?>
<svg id="Capa_1" data-name="Capa 1" xmlns="http://www.w3.org/2000/svg" viewBox="0 0 100 100">
  <defs>
    <style>
      .cls-1 {
        fill: #000;
      }

      .cls-1, .cls-2 {
        stroke-width: 0px;
      }

      .cls-2 {
        fill: #fff;
      }
    </style>
  </defs>
  <g id="layer6">
    <g id="g1957">
      <path id="rect1163" class="cls-1" d="M8.5,37.98h83v24.03H8.5v-24.03Z"/>
      <path id="path1187-8" class="cls-2" d="M69.2,59.8v-8.2h5.16s2.81-.02,2.79,2.77c.01.83-.48,1.51-1.14,2.01l2.36,3.43h-3.47l-1.67-2.23h-1.05v2.23h-2.98ZM74.1,54.5c0-.65-.7-.91-.7-.91h-1.23v1.82h1.25s.68-.26.68-.91ZM14.9,39.59c-2.46,0-4.46,1.94-4.47,4.35,0,2.41,2,4.35,4.46,4.35,1.95,0,3.61-1.22,4.22-2.92l-2.64-.85c-.24.62-.86,1.07-1.58,1.07-.94,0-1.69-.74-1.7-1.65,0-.91.76-1.65,1.69-1.65.71,0,1.32.43,1.57,1.04l2.64-.85c-.62-1.68-2.26-2.88-4.2-2.88ZM52.03,51.59l-1.04,2.72-1.12-2.75-1.09,2.75-.99-2.7-2.97.02,3.18,8.51,1.88-2.93,1.88,2.95,3.23-8.57h-2.95ZM29.47,56.76v-2.31h-3.17v-.94h3.4v-1.92h-6.41l.02,8.21h6.42v-2.01h-3.43v-1.03h3.17ZM86.63,39.96v3.4l-5.66-3.4v8.21s2.86,0,2.86,0v-2.95l5.45,3.16v-8.42h-2.66ZM34,48.16v-8.2h5.16s2.81-.02,2.79,2.77c.01.83-.48,1.51-1.14,2.01l2.36,3.43h-3.47l-1.67-2.23h-1.05v2.23h-2.98ZM38.91,42.86c0-.65-.7-.91-.7-.91h-1.23v1.82h1.25s.68-.26.68-.91h0ZM61.64,42.41c.91,0,1.65.74,1.65,1.65,0,.91-.74,1.65-1.65,1.65-.91,0-1.65-.74-1.65-1.65,0-.91.74-1.65,1.65-1.65h0ZM61.64,48.41c2.4,0,4.35-1.94,4.35-4.34,0-2.4-1.94-4.35-4.34-4.36-2.4,0-4.35,1.94-4.36,4.35,0,2.41,1.95,4.35,4.35,4.35ZM20.86,38.61v11.12h11.41v-11.12h-11.41ZM44.29,38.61v11.12h11.41v-11.12h-11.41ZM67.73,38.61v11.12h11.41v-11.12h-11.41ZM73.45,39.71c2.4,0,4.35,1.95,4.34,4.36,0,2.4-1.95,4.35-4.35,4.34-2.4,0-4.35-1.95-4.35-4.35,0-2.41,1.95-4.35,4.36-4.35ZM46.06,39.96h7.64v2.49l-2.29-.33v6.05h-3.06v-6.09l-2.29.35v-2.47ZM26.37,39.97l4.72,8.19h-3.05l-.47-1.06h-2.49l-.55,1.06h-2.91l4.75-8.19ZM73.44,42.41c-.91,0-1.65.74-1.65,1.65,0,.91.74,1.65,1.65,1.65.91,0,1.65-.74,1.65-1.65,0-.91-.74-1.65-1.65-1.65ZM26.37,43.84l-.72,1.7h1.47l-.75-1.7ZM9.14,50v11.39h11.41v-11.39h-11.41ZM32.58,50v11.39h11.41v-11.39h-11.41ZM56.01,50v11.39h11.41v-11.39h-11.41ZM79.44,50v11.39h11.41v-11.39h-11.41ZM61.65,51.43c2.4,0,4.35,1.95,4.34,4.36,0,2.4-1.95,4.35-4.35,4.34-2.4,0-4.35-1.95-4.35-4.35,0-2.41,1.95-4.35,4.36-4.35h0ZM10.65,51.59l5.66,3.4v-3.4h2.66v8.42l-5.45-3.16v2.95h-2.87v-8.21ZM34.31,51.59h7.64v2.49l-2.29-.33v6.05h-3.06v-6.09l-2.29.35v-2.47ZM81.17,51.59h2.8v3.47l2.36-3.47h3.08l-2.59,4.01,2.85,4.2h-3.54l-2.21-3.26v3.26h-2.75v-8.21ZM61.64,54.13c-.91,0-1.65.74-1.65,1.65,0,.91.74,1.65,1.65,1.65.91,0,1.65-.74,1.65-1.65,0-.91-.74-1.65-1.65-1.65h0Z"/>
    </g>
  </g>
</svg>