<?xml version="1.0" encoding="UTF-8"?>
<svg id="Capa_1" data-name="Capa 1" xmlns="http://www.w3.org/2000/svg" viewBox="0 0 100 100">
  <defs>
    <style>
      .cls-1 {
        fill: #0071bc;
        stroke-width: 0px;
      }
    </style>
  </defs>
  <path class="cls-1" d="M15.5,32.36h1.31c3.76.15,7.32,1.19,10.77,2.61,1.56.64,3.05,1.42,4.5,2.28,1.14.67,2.12,1.41,3.21,2.24.57.44,1.11.93,1.64,1.42,1.3,1.21,2.52,2.62,3.42,4.16.19.32.35.69.53,1.04.16.32.26.54.32.68.37.9.59,1.91.55,2.88-.02.57-.08,1.15-.22,1.71-.37,1.41-1.22,2.7-2.22,3.77-.9.95-2.14,1.65-3.34,2.14-3.28,1.34-6.9,1.65-10.38.97-.44-.09-.88-.18-1.31-.27,0,0-.01,0-.01,0,0,0,0,0,0,0-.03.53-.02,1.37-.63,1.59-.41.15-.97.18-1.37.02-.53-.21-.8-.72-.89-1.27-.09-.51-.15-1.02-.19-1.53,0-.02-.01-.04-.03-.04-1.46-.66-2.92-1.49-4.16-2.49-1.2-.97-2.45-2.03-3.2-3.41-.77-1.44.14-2.54,1.33-3.25,1.33-.79,2.81-1.25,4.28-1.64.59-.16,1.21-.22,1.81-.34.04,0,.07-.04.07-.08.04-.57.02-1.17.07-1.71.06-.71.15-1.41.23-2.11.07-.57.19-1.14.35-1.69.14-.45.41-.66.83-.32.54.45.81,1.16.98,1.83.31,1.25.37,2.58.39,3.76,0,0,0,.02.02.02,0,0,0,0,0,0,.81-.02,1.66-.06,2.47.02,1.25.12,2.48.34,3.69.66,1.23.33,2.38.79,3.2,1.78.51.62.8,1.51.48,2.28-.32.79-.99,1.43-1.83,1.63-.49.12-1.1,0-1.57-.16-.28-.1-.4-.36-.1-.53.42-.24.83-.4,1.14-.79.48-.6-.47-.95-.86-1.08-.73-.24-1.47-.41-2.22-.56-1.43-.29-2.88-.46-4.36-.49-.02,0-.03.02-.03.04,0,0,0,0,0,0l.16,7.53s0,.02.02.03c2.22.46,4.54.47,6.77.16,1.56-.22,3.02-.65,4.39-1.42.53-.3,1.01-.65,1.43-1.05,1.23-1.16,1.81-2.87,1.59-4.54-.08-.62-.3-1.28-.56-1.84-1.14-2.5-3.04-4.5-5.29-6.15-3.4-2.49-7.32-4.23-11.39-5.26-2.1-.53-4.24-.83-6.43-.91-1.24-.04-2.43.01-3.55.16-.4.05-.82.18-1.26.3-.12.03-.22.08-.32.16,0,0,0,.01,0,.02,0,0,0,0,0,0,.07.05.13.08.19.08.23.03.46.06.69.09.28.04.62.15.72.45.07.21-.04.36-.23.45-.07.03-.14.05-.21.07-.46.09-.99.06-1.46-.04-.41-.09-.81-.19-.9-.67v-.29c.11-.5.37-.99.7-1.38.36-.43.85-.71,1.38-.89.39-.14.92-.27,1.61-.41,1.09-.22,2.2-.35,3.31-.4h0ZM15.05,51.07c.39.37.76.75,1.18,1.06.83.61,1.69,1.16,2.6,1.65.78.42,1.52.71,2.31,1,.02,0,.04,0,.04-.02,0,0,0,0,0-.01-.06-2.17-.06-4.35-.02-6.52,0-.01,0-.02-.02-.02,0,0,0,0,0,0-.55.04-1.1.09-1.66.15-1.19.12-2.36.34-3.51.64-.48.13-1.04.3-1.42.61-.55.44.16,1.13.5,1.46h0ZM42.62,44.09c-.61.4-1.07-.47-1.18-.91-.09-.35.02-.8-.11-1.09-.13-.29-.37-.52-.5-.8-1.06-2.32,1.05-4.49,2.87-5.52,1.11-.63,2.33-1.05,3.62-1.02.81.02,1.55.28,2.12.86.07.07.15.19.24.27,0,0,.02.01.03.02.47.07.89.23,1.24.49,1.46,1.06.98,2.92-.1,4.06-.59.64-1.21,1.18-1.85,1.62-1.18.82-2.69,1.5-4.15,1.5-.3,0-.61-.06-.92-.1-.15-.02-.55-.09-.66-.18-.05-.04-.08-.03-.11.02-.14.26-.29.63-.54.8h0ZM42.3,40.47c.81-1.25,1.83-2.34,2.99-3.28.02-.01.02-.02,0-.02-.61.02-1.07.24-1.6.58-.72.46-1.91,1.55-1.51,2.53.03.07.05.13.07.18.01.04.03.05.06,0h0ZM45.66,39.63c-.55.55-.94,1.09-1.36,1.66-.04.05-.02.08.04.09.09.02.18.03.27.04,1.79.12,3.37-.38,4.75-1.49.46-.37.92-.93.94-1.54.02-.71-.59-1.15-1.26-1-.79.18-1.34.51-2,1.01-.49.38-.95.78-1.38,1.22h0ZM66.73,44.24c.67.7,1.22,1.55,1.63,2.42.04.09.15.35.31.76.72,1.85,1.04,3.88.76,5.85-.12.87-.38,1.64-.93,2.33-.56.7-1.7,1.13-2.45.43-.2-.19-.43-.48-.62-.74-.47-.66-.9-1.35-1.29-2.07-.52-.97-1.03-1.93-1.54-2.91-.07-.13-.14-.22-.24-.29-.06-.05-.1-.03-.12.04-.04.17-.07.34-.08.51-.11,1.58-.11,3.04-.2,4.55-.04.64-.11,2.15-1.13,1.97-1.26-.23-1.34-1.89-1.35-2.88,0-.67.04-1.34.12-2,.22-1.69.6-3.34,1.19-4.94.13-.35.41-.9.8-.97.44-.08.84.27,1.07.59.9,1.26,1.69,2.4,2.35,3.44.66,1.02,1.17,1.8,1.53,2.35.06.09.18.23.26.25.1.03.15,0,.15-.1,0-.58-.04-1.25-.15-2.09-.25-1.94-.81-3.72-1.3-5.53-.08-.28-.21-.84-.15-1.16.08-.41.49-.41.79-.24.19.11.38.25.54.43h0ZM72.88,47.76c-.53-.12-1.13-.26-1.58-.58-.22-.16-.5-.57-.45-.86.04-.27.35-.39.59-.44,1.95-.42,3.95-.65,5.94-.8.69-.05,1.32.01,1.89.44.41.31.73.7.96,1.17.4.82-.41,1.03-1.01,1.13-1.37.22-2.47.2-4.13.2-.01,0-.02,0-.02.01l-.45,1.5s0,.02.02.03c0,0,0,0,0,0,.84,0,1.69-.01,2.55-.02.6,0,1.08.09,1.17.79.05.41.1.98-.35,1.16-.18.07-.47.08-.67.08-.85.02-1.69.03-2.54.05-.24,0-.54.03-.9.09-.01,0-.02,0-.03.02-.26.7-.49,1.41-.69,2.12,0,.02,0,.03.02.04,0,0,0,0,0,0,.32,0,.63-.02.95-.08,1.2-.22,2.36-.39,3.39-.54.18-.03.34,0,.48.07.31.16.58.64.65.97.13.62-.23.91-.68,1.23-1.3.93-2.99,1.76-4.6,1.88-.56.04-1.4-.2-1.9-.62-.18-.15-.34-.34-.48-.57-.66-1.04-.65-2.33-.16-3.44.06-.13.17-.4.33-.8.06-.14.07-.27.05-.39-.06-.3-.12-.61-.17-.92-.1-.58.36-.89.87-.93.3-.02.42-.4.51-.64.15-.44.31-.88.47-1.32,0-.01,0-.02-.01-.02,0,0,0,0,0,0h0ZM48.42,50.7c-.88-.23-1.29-.78-1.23-1.68.13-2,2.23-2.88,3.88-3.26,1.82-.41,3.76-.52,5.6-.23.71.11,1.52.32,2.13.7.47.29,0,.98-.29,1.19-.18.13-.39.23-.63.28-.4.09-.93.16-1.58.19-.8.04-1.6.07-2.39.09-.08,0-.2.02-.31.02-1.07.02-2.26.14-3.36.38-.22.05-.75.14-.88.34-.04.07-.03.12.03.16.24.16.67.21.95.25,2.25.27,3.67.43,4.25.51.9.11,1.8.29,2.56.66.97.48,1.48,1.62,1.53,2.65.05,1.26-.35,2.26-1.35,3.03-1.52,1.16-3.77,1.3-5.6.88-1.34-.31-2.87-1.07-3.65-2.25-.4-.6-.44-1.39-.06-2.01.7-1.11,2.54-1.24,3.69-1.12,1.23.13,2.42.37,3.51.93.71.36.12.84-.3,1.02-.82.36-1.72.53-2.58.24-.97-.33-2.09-1.1-3.06-.74-.29.11-.61.41-.51.75.15.5,1.14.75,1.58.82.2.03.45.05.74.06,1.77.03,3.81-.27,5.28-1.36.3-.22.45-.55.24-.88,0-.01-.02-.02-.03-.03l-.06-.02s-.02-.01-.03-.02c-.41-.56-1.71-.8-2.34-.9-1.29-.22-2.61-.31-3.91-.42-.81-.07-1.23-.09-1.85-.25h0ZM91.5,50.03v.92c-.05.7-.18,1.32-.37,1.87-.72,2.02-2.39,3.54-4.32,4.44-1.04.48-2.1.7-3.24.63-.02,0-.05.01-.05.04-.52,1.5-.89,2.85-1.3,4.59-.05.23-.11.47-.16.73-.25,1.24-.51,2.48-.79,3.71-.08.37-.09.59-.45.69h-.22c-.77-.31-1.48-.82-1.7-1.64-.19-.7-.16-1.49-.07-2.2.21-1.69.49-3.31,1.01-4.92.33-1.01.68-2.02,1.08-3.01,0-.02,0-.04,0-.06-.42-.91-.63-1.92-.56-2.91.16-2.47,1.61-4.82,3.19-6.66.21-.25.45-.46.7-.64.27-.2.57-.12.64.24.02.13.03.26,0,.4-.11.71-.43,1.37-.78,1.99-.27.46-.53.92-.8,1.39-.53.93-.95,2-1.09,3.05-.03.25,0,.48.04.72,0,.03.01.03.03,0,.44-.62.9-1.23,1.35-1.85.9-1.23,2.02-2.4,2.94-3.3.65-.63,1.17-1.05,1.9-1.4.63-.3,1.19-.27,1.75.17.89.72,1.21,1.92,1.3,3.01h0ZM88.75,49.51c-.68.75-1.3,1.54-1.86,2.39-.45.68-.88,1.37-1.34,2.05-.19.29-.37.58-.53.88,0,0,0,.02,0,.02,0,0,0,0,0,0,.05.01.1.02.17.02,1.11-.05,2.33-.63,3.12-1.36,1.06-.97,1.79-2.53,1.51-3.99-.05-.24-.25-.81-.61-.49-.19.17-.36.33-.49.48ZM45.36,57.02c-1,.19-1.77-.21-1.92-1.26-.09-.6-.14-1.27-.16-1.99-.04-1.47,0-2.93.11-4.4.06-.78.15-1.55.29-2.31.06-.34.15-.68.28-1,.11-.29.29-.64.66-.52.38.12.65.38.8.78.19.49.26.99.32,1.51.12.99.19,1.95.24,2.91.07,1.44.13,2.89.18,4.33.01.34,0,.68-.05,1.02-.06.45-.26.84-.74.93h0Z"/>
</svg>