<?xml version="1.0" encoding="UTF-8"?>
<svg id="Capa_1" data-name="Capa 1" xmlns="http://www.w3.org/2000/svg" xmlns:xlink="http://www.w3.org/1999/xlink" viewBox="0 0 140 140">
  <defs>
    <style>
      .cls-1 {
        fill: #9000ff;
      }

      .cls-1, .cls-2 {
        stroke-width: 0px;
      }

      .cls-3 {
        stroke: url(#Degradado_sin_nombre_139-2);
      }

      .cls-3, .cls-4, .cls-5, .cls-6, .cls-7 {
        fill: none;
        stroke-miterlimit: 10;
      }

      .cls-3, .cls-4, .cls-5, .cls-7 {
        stroke-width: 5px;
      }

      .cls-4 {
        stroke: url(#Degradado_sin_nombre_139);
      }

      .cls-5 {
        stroke: url(#Degradado_sin_nombre_139-3);
      }

      .cls-6 {
        stroke: #ffe51f;
        stroke-linecap: square;
        stroke-width: 3.07px;
      }

      .cls-7 {
        stroke: url(#Degradado_sin_nombre_139-4);
      }

      .cls-2 {
        fill: #ffe51f;
      }
    </style>
    <linearGradient id="Degradado_sin_nombre_139" data-name="Degradado sin nombre 139" x1="-.27" y1="9.71" x2="19.88" y2="9.71" gradientUnits="userSpaceOnUse">
      <stop offset="0" stop-color="#9000ff"/>
      <stop offset=".06" stop-color="#a42ad5"/>
      <stop offset=".15" stop-color="#bf629e"/>
      <stop offset=".24" stop-color="#d69171"/>
      <stop offset=".33" stop-color="#e8b54d"/>
      <stop offset=".41" stop-color="#f4cf33"/>
      <stop offset=".48" stop-color="#fcdf24"/>
      <stop offset=".53" stop-color="#ffe51f"/>
      <stop offset="1" stop-color="#9000ff"/>
    </linearGradient>
    <linearGradient id="Degradado_sin_nombre_139-2" data-name="Degradado sin nombre 139" x1="-348.27" y1="9.71" x2="-328.12" y2="9.71" gradientTransform="translate(-207.9) rotate(-180) scale(1 -1)" xlink:href="#Degradado_sin_nombre_139"/>
    <linearGradient id="Degradado_sin_nombre_139-3" data-name="Degradado sin nombre 139" x1="-348.27" y1="-108.29" x2="-328.12" y2="-108.29" gradientTransform="translate(-207.9 21.92) rotate(-180)" xlink:href="#Degradado_sin_nombre_139"/>
    <linearGradient id="Degradado_sin_nombre_139-4" data-name="Degradado sin nombre 139" x1="91.73" y1="-108.29" x2="111.88" y2="-108.29" gradientTransform="translate(-92 21.92) scale(1 -1)" xlink:href="#Degradado_sin_nombre_139"/>
  </defs>
  <g>
    <path class="cls-4" d="M2.23,19.78V2.14h17.65"/>
    <path class="cls-3" d="M137.88,19.78V2.14s-16.13,0-17.65,0"/>
    <path class="cls-5" d="M137.88,120.14v17.63h-17.65"/>
    <path class="cls-7" d="M2.23,120.14v17.63s16.13,0,17.65,0"/>
  </g>
  <g>
    <g>
      <rect class="cls-2" x="60.2" y="44.06" width="19.6" height="19.6"/>
      <path class="cls-1" d="M73.43,51.55c-1.74,1.41-3.15,2.3-3.29,2.31-.18,0-.35,0-.35,0s0,0-.01,0c-.19-.02-2.36-1.66-3.2-2.31v-5.39h6.86v5.39Z"/>
    </g>
    <g>
      <path class="cls-6" d="M58.13,99.39s10.12,11.55,24.36,0"/>
      <path class="cls-6" d="M49.32,107.46s18.55,16.15,40.66,0"/>
    </g>
    <path class="cls-1" d="M94.25,42.87c-3.19-7.91-11.82-17.11-23.25-17.5-12.03-.41-21.65,9.12-25.15,17.5-6.24,14.94,2.66,36.65,24.2,49.99,21.26-13.58,30.26-35,24.2-49.99ZM69.87,73.72c-11.3,0-20.46-9.16-20.46-20.46s9.16-20.46,20.46-20.46,20.46,9.16,20.46,20.46-9.16,20.46-20.46,20.46Z"/>
  </g>
</svg>