<?xml version="1.0" encoding="UTF-8"?>
<svg id="Capa_1" data-name="Capa 1" xmlns="http://www.w3.org/2000/svg" xmlns:xlink="http://www.w3.org/1999/xlink" viewBox="0 0 140 140">
  <defs>
    <style>
      .cls-1 {
        fill: #9000ff;
      }

      .cls-1, .cls-2 {
        stroke-width: 0px;
      }

      .cls-3 {
        stroke: url(#Degradado_sin_nombre_139-2);
      }

      .cls-3, .cls-4, .cls-5, .cls-6, .cls-7 {
        fill: none;
        stroke-miterlimit: 10;
      }

      .cls-3, .cls-4, .cls-5, .cls-7 {
        stroke-width: 5px;
      }

      .cls-4 {
        stroke: url(#Degradado_sin_nombre_139);
      }

      .cls-5 {
        stroke: url(#Degradado_sin_nombre_139-3);
      }

      .cls-6 {
        stroke: #9000ff;
        stroke-width: 3px;
      }

      .cls-7 {
        stroke: url(#Degradado_sin_nombre_139-4);
      }

      .cls-2 {
        fill: #ffe51f;
      }
    </style>
    <linearGradient id="Degradado_sin_nombre_139" data-name="Degradado sin nombre 139" x1="-.01" y1="9.71" x2="20.14" y2="9.71" gradientUnits="userSpaceOnUse">
      <stop offset="0" stop-color="#9000ff"/>
      <stop offset=".06" stop-color="#a42ad5"/>
      <stop offset=".15" stop-color="#bf629e"/>
      <stop offset=".24" stop-color="#d69171"/>
      <stop offset=".33" stop-color="#e8b54d"/>
      <stop offset=".41" stop-color="#f4cf33"/>
      <stop offset=".48" stop-color="#fcdf24"/>
      <stop offset=".53" stop-color="#ffe51f"/>
      <stop offset="1" stop-color="#9000ff"/>
    </linearGradient>
    <linearGradient id="Degradado_sin_nombre_139-2" data-name="Degradado sin nombre 139" x1="-16.01" y1="9.71" x2="4.14" y2="9.71" gradientTransform="translate(124.63) rotate(-180) scale(1 -1)" xlink:href="#Degradado_sin_nombre_139"/>
    <linearGradient id="Degradado_sin_nombre_139-3" data-name="Degradado sin nombre 139" x1="-16.01" y1="-108.29" x2="4.14" y2="-108.29" gradientTransform="translate(124.63 21.92) rotate(-180)" xlink:href="#Degradado_sin_nombre_139"/>
    <linearGradient id="Degradado_sin_nombre_139-4" data-name="Degradado sin nombre 139" x1="91.99" y1="-108.29" x2="112.14" y2="-108.29" gradientTransform="translate(-92 21.92) scale(1 -1)" xlink:href="#Degradado_sin_nombre_139"/>
  </defs>
  <g>
    <path class="cls-4" d="M2.49,19.78V2.14h17.65"/>
    <path class="cls-3" d="M138.14,19.78V2.14s-16.13,0-17.65,0"/>
    <path class="cls-5" d="M138.14,120.14v17.63h-17.65"/>
    <path class="cls-7" d="M2.49,120.14v17.63s16.13,0,17.65,0"/>
  </g>
  <g>
    <g>
      <path class="cls-2" d="M17.8,58.58s25.34-5.62,32.18-4.82c6.84.8,8.65,2.67,8.65,2.67l-1.27,16.84s-5.34.96-8.85-3.83c-3.52-4.79-29.22-5.92-29.26-5.92l-1.44-4.93Z"/>
      <path class="cls-2" d="M122.2,58.58s-25.34-5.62-32.18-4.82c-6.84.8-8.65,2.67-8.65,2.67l1.27,16.84s5.34.96,8.85-3.83c3.44-4.7,12.07-4.73,28.08-5.86.71-.05,1.28-.09,1.62-.11.33-1.63.67-3.26,1-4.88Z"/>
      <path class="cls-1" d="M55.05,65.84c0-8.02,6.69-14.52,14.95-14.52s14.95,6.5,14.95,14.52h-29.9Z"/>
      <rect class="cls-2" x="51.13" y="63.03" width="37.74" height="5.22" rx="2.07" ry="2.07"/>
      <path class="cls-1" d="M79.2,75.48h-18.41c-1.48,0-2.83-.87-3.44-2.22l-2.26-5.01h29.8l-2.26,5.01c-.61,1.35-1.96,2.22-3.44,2.22Z"/>
      <path class="cls-1" d="M19.58,58.19s.39-5.24,4.34-6.04,6.05,3.96,6.05,3.96l-10.4,2.08Z"/>
      <g>
        <path class="cls-2" d="M25.54,51.98l-3.69.77s-.4-2.84,1.26-3.18c1.65-.35,2.43,2.41,2.43,2.41Z"/>
        <g>
          <path class="cls-2" d="M22.34,52.13s-3.54-1-8.24,1.22c-4.7,2.22,5.34-.2,6.67-.48s1.57-.74,1.57-.74Z"/>
          <path class="cls-2" d="M24.84,51.61s2.84-2.33,8.03-2.18-4.97,1.95-6.3,2.23-1.73-.05-1.73-.05Z"/>
        </g>
      </g>
      <path class="cls-1" d="M120.42,58.19s-.39-5.24-4.34-6.04c-3.95-.8-6.05,3.96-6.05,3.96l10.4,2.08Z"/>
      <g>
        <path class="cls-2" d="M114.46,51.98l3.69.77s.4-2.84-1.26-3.18c-1.65-.35-2.43,2.41-2.43,2.41Z"/>
        <g>
          <path class="cls-2" d="M117.66,52.13s3.54-1,8.24,1.22c4.7,2.22-5.34-.2-6.67-.48-1.33-.28-1.57-.74-1.57-.74Z"/>
          <path class="cls-2" d="M115.16,51.61s-2.84-2.33-8.03-2.18,4.97,1.95,6.3,2.23,1.73-.05,1.73-.05Z"/>
        </g>
      </g>
      <path class="cls-6" d="M77.56,72.99c3.45,1.27,5.82,4.44,6.02,8.03.21,3.92-2.22,7.61-6.02,9.03"/>
      <path class="cls-6" d="M61.53,90.04c-3.45-1.27-5.82-4.44-6.02-8.03-.21-3.92,2.22-7.61,6.02-9.03"/>
    </g>
    <rect class="cls-2" x="59.97" y="82.52" width="20.06" height="20.06"/>
    <path class="cls-1" d="M73.51,90.19c-1.79,1.45-3.23,2.36-3.37,2.37-.18,0-.36,0-.36,0s0,0-.01,0c-.2-.02-2.42-1.7-3.28-2.36v-5.52h7.02v5.52Z"/>
  </g>
</svg>