<?xml version="1.0" encoding="UTF-8"?>
<svg id="Capa_1" data-name="Capa 1" xmlns="http://www.w3.org/2000/svg" viewBox="0 0 48 48">
  <defs>
    <style>
      .cls-1 {
        fill: red;
        stroke: red;
        stroke-miterlimit: 10;
        stroke-width: 2px;
      }
    </style>
  </defs>
  <path class="cls-1" d="M39.74,35.23h4.88c.21,0,.38-.17.38-.38,0-.21-.17-.38-.38-.38h-4.88c-.21,0-.38.17-.38.38,0,.21.17.38.38.38Z"/>
  <g>
    <path class="cls-1" d="M12.84,34.76c0-2.52,2.05-4.57,4.57-4.57s4.57,2.05,4.57,4.57-2.05,4.57-4.57,4.57-4.57-2.05-4.57-4.57ZM13.6,34.76c0,2.1,1.71,3.81,3.81,3.81s3.81-1.71,3.81-3.81-1.71-3.81-3.81-3.81-3.81,1.71-3.81,3.81Z"/>
    <path class="cls-1" d="M30.63,34.76c0-2.52,2.05-4.57,4.57-4.57s4.57,2.05,4.57,4.57-2.05,4.57-4.57,4.57-4.57-2.05-4.57-4.57ZM31.4,34.76c0,2.1,1.71,3.81,3.81,3.81s3.81-1.71,3.81-3.81-1.71-3.81-3.81-3.81-3.81,1.71-3.81,3.81Z"/>
    <path class="cls-1" d="M21.6,35.15h9.41c.21,0,.38-.17.38-.38s-.17-.38-.38-.38h-9.41c-.21,0-.38.17-.38.38,0,.21.17.38.38.38Z"/>
    <path class="cls-1" d="M5.52,35.15h7.7c.21,0,.38-.17.38-.38s-.17-.38-.38-.38h-7.7c-.21,0-.38.17-.38.38s.17.38.38.38Z"/>
    <path class="cls-1" d="M27.85,35.15c.21,0,.38-.17.38-.38V11.58c0-2.04-.72-2.95-2.35-2.95H9.8c-1.52,0-2.35.8-2.35,2.26v23.78c0,.21.17.38.38.38s.38-.17.38-.38V10.89c0-1.04.49-1.5,1.59-1.5h16.08c1,0,1.59.36,1.59,2.18v23.19c0,.21.17.38.38.38Z"/>
    <path class="cls-1" d="M42.39,35.32c.21,0,.38-.17.38-.38v-7.79c0-.05-.01-.11-.03-.16l-6.07-13.35c-.06-.13-.2-.22-.34-.22l-8.21-.09c-.21,0-.38.17-.39.38,0,.21.17.38.38.39l7.97.08,5.94,13.05v7.7c0,.21.17.38.38.38Z"/>
    <path class="cls-1" d="M7.83,23.17h32.43c.21,0,.38-.17.38-.38,0-.21-.17-.38-.38-.38H7.83c-.21,0-.38.17-.38.38s.17.38.38.38Z"/>
    <g>
      <rect class="cls-1" x="10.74" y="13.8" width="14.2" height="5.22"/>
      <path class="cls-1" d="M10.36,19.02v-5.22c0-.21.17-.38.38-.38h14.2c.21,0,.38.17.38.38v5.22c0,.21-.17.38-.38.38h-14.2c-.21,0-.38-.17-.38-.38ZM24.56,14.18h-13.44s0,4.46,0,4.46h13.44s0-4.46,0-4.46Z"/>
    </g>
  </g>
</svg>